<?xml version="1.0" encoding="UTF-8" standalone="no"?>
<svg
   xmlns:dc="http://purl.org/dc/elements/1.1/"
   xmlns:cc="http://creativecommons.org/ns#"
   xmlns:rdf="http://www.w3.org/1999/02/22-rdf-syntax-ns#"
   xmlns:svg="http://www.w3.org/2000/svg"
   xmlns="http://www.w3.org/2000/svg"
   width="128"
   height="128"
   viewBox="0 0 33.866664 33.866666"
   version="1.1"
   id="svg8">
  <defs
     id="defs2" />
  <metadata
     id="metadata5">
    <rdf:RDF>
      <cc:Work
         rdf:about="">
        <dc:format>image/svg+xml</dc:format>
        <dc:type
           rdf:resource="http://purl.org/dc/dcmitype/StillImage" />
        <dc:title></dc:title>
      </cc:Work>
    </rdf:RDF>
  </metadata>
  <g
     style="fill:#000000"
     id="layer1"
     transform="matrix(0.15905063,0,0,0.15905063,33.794109,0.95792188)">
    <path
       style="fill:#000000;stroke-width:0.264583"
       d="m -161.91728,184.74531 c 1.23314,-2.13624 16.67915,-28.9161 18.04562,-31.28698 13.51583,-23.45048 31.55005,-54.679652 33.00298,-57.149998 1.9663,-3.34319 2.74788,-4.404064 4.91833,-6.675845 7.726342,-8.087075 19.078695,-11.213013 29.945654,-8.245713 3.52298,0.961974 4.996926,1.701577 15.604106,7.829918 5.16599,2.984672 16.35787,9.4435 24.87083,14.352958 8.51297,4.90945 16.25204,9.41798 17.19792,10.01895 3.27612,2.0815 6.92776,5.99993 8.8494195,9.49597 4.56576,8.30637 4.35935,18.45729 -0.5435895,26.73361 -1.82862,3.08678 -6.05623,7.27437 -9.22281,9.13549 -3.03277,1.78249 -7.22743,3.15619 -10.88594,3.56502 -11.31175,1.26405 -22.80388,-5.4409 -27.19041,-15.86393 l -0.64424,-1.5308 -4.01939,-2.31485 c -2.21066,-1.27317 -4.12253,-2.25111 -4.24861,-2.17319 -0.12607,0.0779 -0.98716,1.47679 -1.91353,3.10861 -1.62658,2.86524 -18.998681,32.96336 -22.214154,38.48724 l -1.578653,2.71198 h -35.044033 c -19.27423,0 -34.9925,-0.0893 -34.9295,-0.19844 z M -26.7048,160.23842 c 3.88732,-1.09854 8.82309,-3.82771 10.98017,-6.07134 l 0.88742,-0.92302 -1.94575,-0.14962 c -1.07016,-0.0823 -3.67216,-0.28178 -5.78221,-0.4433 -3.34205,-0.25585 -11.16107,-1.27067 -13.29531,-1.72559 -0.40019,-0.0853 -0.72343,-0.29446 -0.71831,-0.4648 0.0167,-0.55691 0.72129,-3.64203 0.86446,-3.7852 0.0768,-0.0768 1.6678,0.10362 3.53554,0.40094 5.44309,0.86646 10.71105,1.37494 15.96991,1.54145 l 4.90107,0.15519 0.99389,-2.11794 c 4.5981395,-9.79846 2.4925795,-21.23809 -5.27644,-28.66726 -2.37789,-2.27387 -2.69257,-2.47762 -13.06023,-8.45633 -13.49227,-7.78059 -14.83038,-8.53628 -14.92424,-8.4284 -0.0478,0.055 -1.2167,2.06446 -2.5975,4.46555 -1.3808,2.40109 -4.05816,7.04453 -5.94967,10.31875 -3.76446,6.51628 -11.76177,20.4583 -12.62416,22.0082 -0.29802,0.5356 -0.48398,1.01988 -0.41325,1.07617 0.0707,0.0563 2.03745,1.204 4.37049,2.55046 l 4.24187,2.4481 0.58743,1.51493 c 0.82223,2.12047 2.91891,5.43128 4.64059,7.3278 3.35457,3.69525 8.23474,6.51846 13.23506,7.65658 2.24581,0.51116 9.25608,0.36866 11.37917,-0.23132 z m 9.2632,-20.79046 c -2.20771,-0.52662 -3.67196,-2.60363 -3.47868,-4.93442 0.31822,-3.83723 4.67263,-5.58359 7.65822,-3.07139 2.08243,1.75225 2.07499,5.24471 -0.0149,7.00327 -0.46086,0.38779 -1.28072,0.82805 -1.82191,0.97835 -1.09402,0.30385 -1.16713,0.3046 -2.34269,0.0242 z m -41.29943,-24.47997 c 2.93728,-1.46098 4.98609,-3.82224 5.85489,-6.7478 0.58541,-1.9713 0.52856,-2.46856 -0.1301,-1.13791 -0.7494,1.51396 -2.87156,2.6088 -4.54434,2.34448 -3.23764,-0.5116 -4.9971,-3.71541 -3.65878,-6.66231 0.89717,-1.97552 3.23847,-3.044932 5.40078,-2.46686 0.7198,0.19242 1.49264,0.69732 2.21127,1.44461 l 1.10474,1.1488 -0.49364,-1.43477 c -1.32979,-3.865116 -4.56166,-6.548628 -8.75514,-7.269645 -5.67035,-0.974947 -11.3951,3.207666 -12.416254,9.071555 -0.569129,3.26819 0.477684,6.69377 2.806274,9.18322 2.4584,2.62822 4.62744,3.49388 8.4472,3.37124 2.28228,-0.0733 2.85569,-0.18934 4.1731,-0.84461 z m -107.62519,61.27067 c -0.43656,-0.27175 -2.00133,-1.19457 -3.47726,-2.05071 l -2.68352,-1.55662 2.02206,-3.47968 c 1.11213,-1.91383 2.10441,-3.56174 2.20506,-3.66204 0.14353,-0.14302 5.1719,2.57052 7.06901,3.81477 0.30005,0.19679 -0.0293,0.94674 -1.68657,3.84091 -1.13269,1.97801 -2.19344,3.59437 -2.35723,3.59192 -0.16379,-0.002 -0.65499,-0.2268 -1.09155,-0.49855 z m 6.1445,-16.26945 c -1.85927,-1.06639 -3.44907,-2.00746 -3.53288,-2.09128 -0.18593,-0.18592 3.9082,-7.33001 4.20068,-7.33001 0.14554,0 6.20756,3.40589 7.25868,4.07822 0.13031,0.0833 -4.07287,7.14 -4.29199,7.20575 -0.13969,0.0419 -1.77521,-0.79629 -3.63449,-1.86268 z m 8.53988,-14.85801 c -1.81901,-1.07187 -3.40032,-1.98498 -3.51403,-2.02914 -0.26935,-0.10462 3.8312,-7.32935 4.16684,-7.34153 0.43114,-0.0156 7.31118,4.01393 7.22919,4.23406 -0.34321,0.92154 -4.10398,7.12165 -4.31013,7.1058 -0.14552,-0.0112 -1.75286,-0.89733 -3.57187,-1.96919 z m 8.59896,-14.81829 c -1.89177,-1.09095 -3.47682,-2.0922 -3.52233,-2.225 -0.0455,-0.13279 0.83529,-1.8059 1.95733,-3.71802 1.54232,-2.62835 2.14873,-3.44816 2.48544,-3.36011 0.58859,0.15392 6.88476,3.8705 6.88476,4.06402 0,0.29245 -4.03218,7.23775 -4.19762,7.23026 -0.0924,-0.004 -1.71581,-0.9002 -3.60758,-1.99115 z m 8.59895,-14.81947 c -1.81901,-1.06871 -3.42267,-1.98699 -3.56369,-2.04062 -0.14103,-0.0536 0.2284,-0.92225 0.82095,-1.93027 0.59255,-1.00802 1.58072,-2.70338 2.19593,-3.76747 l 1.11857,-1.9347 0.70631,0.46323 c 0.38847,0.25478 2.05126,1.22462 3.69509,2.1552 l 2.98878,1.69196 -0.7104,1.23472 c -2.61201,4.53986 -3.58815,6.1259 -3.75446,6.10028 -0.10438,-0.0161 -1.67806,-0.90362 -3.49708,-1.97233 z m 10.31876,-13.83718 c -0.94589,-0.56054 -2.57184,-1.51112 -3.61322,-2.112401 l -1.89342,-1.093224 2.10152,-3.640839 c 1.15584,-2.002462 2.21773,-3.610576 2.35976,-3.573587 0.43565,0.113453 6.87075,3.827116 7.00328,4.041555 0.1266,0.204835 -3.86411,7.393696 -4.10584,7.396266 -0.0728,7.9e-4 -0.9062,-0.45722 -1.85208,-1.01777 z m 6.9567,-15.730699 c -1.77636,-1.336236 -3.23155,-2.548583 -3.23374,-2.694104 -0.005,-0.332547 4.32283,-5.157473 5.44734,-6.072995 l 0.83592,-0.680577 2.77414,3.109664 2.77414,3.109664 -1.63457,1.73273 c -0.89901,0.953 -2.03745,2.234065 -2.52987,2.846808 -0.49241,0.612746 -0.96467,1.106038 -1.04945,1.096206 -0.0848,-0.0098 -1.60754,-1.111158 -3.38391,-2.447396 z m -33.81191,-0.567095 c -20.42635,-2.359348 -38.31791,-13.334579 -49.40271,-30.305135 -0.99803,-1.527969 -2.66078,-4.457129 -3.69499,-6.509243 -2.04977,-4.067209 -2.12565,-4.569589 -0.87857,-5.816669 1.26891,-1.26891 0.28434,-1.726591 16.9346,7.872209 2.91042,1.677842 7.61338,4.397791 10.45104,6.044328 2.83766,1.646536 9.38609,5.431147 14.55208,8.410244 5.16599,2.979098 11.35724,6.551724 13.75834,7.93917 2.40109,1.387448 6.50875,3.753975 9.12812,5.258948 2.61938,1.504974 4.97086,2.986249 5.22552,3.291727 0.57092,0.684834 0.599,2.036987 0.0583,2.808883 -0.22257,0.317764 -0.84765,0.70572 -1.38906,0.862121 -1.61691,0.46709 -11.13856,0.559718 -14.74272,0.143417 z m 83.87292,-7.623077 c -0.87313,-0.447469 -2.42094,-1.143178 -3.43959,-1.546016 -1.447547,-0.572458 -1.832735,-0.836922 -1.763504,-1.210803 0.182592,-0.986099 2.224984,-7.10298 2.452054,-7.343822 0.14785,-0.156813 0.75753,-0.06737 1.62608,0.238561 1.99781,0.703689 6.8135,3.092488 6.8135,3.379801 0,0.169604 -3.5434,6.480964 -4.07367,7.255854 -0.0151,0.02201 -0.74175,-0.326104 -1.61487,-0.773575 z m -37.15976,-2.945628 c -1.08359,-1.946301 -1.96093,-3.639023 -1.94965,-3.761605 0.0431,-0.467712 8.110832,-4.089461 8.397725,-3.769863 0.101039,0.112559 2.533555,7.757073 2.533555,7.962046 0,0.07425 -0.744141,0.40455 -1.653646,0.733994 -0.909505,0.329443 -2.454347,1.000238 -3.432984,1.49066 -0.97863,0.490418 -1.81207,0.889833 -1.85208,0.887587 -0.04,-0.0021 -0.95933,-1.596515 -2.04292,-3.542819 z m 16.525361,-1.612471 c -0.05862,-0.291042 -0.252505,-2.116889 -0.430855,-4.057441 -0.276757,-3.011257 -0.269174,-3.564618 0.05174,-3.776295 0.406911,-0.268401 8.560917,-0.211058 8.832898,0.06212 0.09083,0.09124 -0.03593,1.996236 -0.281699,4.233334 l -0.446852,4.067453 h -3.809323 c -3.597407,0 -3.815252,-0.02944 -3.915905,-0.529167 z m -33.943251,-7.474479 c -0.29093,-0.254662 -3.36441,-3.856303 -6.82995,-8.003647 -3.46554,-4.147344 -8.3997,-10.040938 -10.96479,-13.096875 -21.21467,-25.274197 -21.95158,-26.175815 -21.95158,-26.858218 0,-0.380029 0.25561,-0.965324 0.56802,-1.300657 0.73683,-0.790889 1.83749,-0.65468 6.01714,0.744633 7.73115,2.588323 14.07311,6.459042 19.968,12.187155 4.65195,4.520341 7.95497,8.984039 10.69197,14.449087 2.96005,5.910435 4.96683,13.07178 5.43749,19.404043 0.11262,1.515234 0.0606,1.757966 -0.49658,2.315104 -0.73781,0.737804 -1.7066,0.80109 -2.43972,0.159375 z"
       id="path24" />
  </g>
</svg>
