<?xml version="1.0" encoding="UTF-8" standalone="no"?>
<svg
   xmlns:dc="http://purl.org/dc/elements/1.1/"
   xmlns:cc="http://creativecommons.org/ns#"
   xmlns:rdf="http://www.w3.org/1999/02/22-rdf-syntax-ns#"
   xmlns:svg="http://www.w3.org/2000/svg"
   xmlns="http://www.w3.org/2000/svg"
   viewBox="0 0 128 128"
   height="128"
   width="128"
   xml:space="preserve"
   id="svg74"
   version="1.1"><metadata
     id="metadata80"><rdf:RDF><cc:Work
         rdf:about=""><dc:format>image/svg+xml</dc:format><dc:type
           rdf:resource="http://purl.org/dc/dcmitype/StillImage" /><dc:title></dc:title></cc:Work></rdf:RDF></metadata><defs
     id="defs78" /><g
     transform="matrix(0.41216718,0,0,-0.41216718,3.9999993,110.5374)"
     id="g82"><path
       d="m 174.877,90.9051 c -2.974,-1.9321 -7.474,-2.8981 -13.499,-2.8981 -4.867,0 -9.716,0.8301 -14.543,2.4918 -4.829,1.6606 -8.904,3.8043 -12.225,6.4317 L 129.396,85.227 c 3.398,-2.9372 8.013,-5.2918 13.847,-7.07 5.832,-1.775 11.877,-2.6648 18.135,-2.6648 7.107,0 13.132,1.0828 18.077,3.2457 4.943,2.1621 8.632,5.0582 11.066,8.6902 2.434,3.6297 3.65,7.6864 3.65,12.1672 0,5.2527 -1.373,9.4237 -4.113,12.5157 -2.743,3.088 -6.046,5.388 -9.908,6.894 -3.864,1.506 -8.807,2.955 -14.832,4.346 -4.404,1.08 -7.88,2.046 -10.429,2.896 -2.55,0.849 -4.655,2.008 -6.316,3.477 -1.662,1.466 -2.491,3.36 -2.491,5.678 0,3.32 1.448,5.986 4.345,7.996 2.897,2.007 7.319,3.013 13.269,3.013 3.63,0 7.376,-0.542 11.239,-1.623 3.862,-1.083 7.57,-2.665 11.125,-4.751 l 4.751,11.704 c -3.476,2.317 -7.61,4.093 -12.399,5.33 -4.791,1.235 -9.658,1.854 -14.601,1.854 -7.108,0 -13.114,-1.082 -18.019,-3.245 -4.907,-2.163 -8.575,-5.08 -11.008,-8.749 -2.433,-3.669 -3.65,-7.745 -3.65,-12.224 0,-5.331 1.37,-9.56 4.114,-12.689 2.74,-3.129 6.025,-5.429 9.849,-6.895 3.824,-1.468 8.825,-2.937 15.006,-4.403 4.403,-1.083 7.88,-2.048 10.43,-2.897 2.549,-0.851 4.652,-2.028 6.314,-3.534 1.661,-1.507 2.492,-3.419 2.492,-5.7367 0,-3.1683 -1.489,-5.7171 -4.462,-7.6472"
       style="fill:#231f20;fill-opacity:1;fill-rule:nonzero;stroke:none;stroke-width:0.1"
       id="path116" /><path
       d="m 256.123,94.3656 c -4.987,-3.7707 -10.763,-5.6625 -17.339,-5.6625 -5.562,0 -10.545,1.2168 -14.949,3.6496 -4.403,2.4336 -7.841,5.8121 -10.312,10.1403 -2.474,4.325 -3.709,9.23 -3.709,14.716 0,5.485 1.235,10.389 3.709,14.716 2.471,4.326 5.909,7.707 10.312,10.14 4.404,2.433 9.387,3.65 14.949,3.65 6.385,0 12.019,-1.76 16.905,-5.272 3.911,3.022 8.614,5.062 13.741,5.755 -3.643,3.992 -8.019,7.084 -13.148,9.251 -5.487,2.317 -11.55,3.476 -18.194,3.476 -8.189,0 -15.585,-1.796 -22.19,-5.388 -6.604,-3.592 -11.801,-8.557 -15.585,-14.89 -3.787,-6.336 -5.679,-13.482 -5.679,-21.438 0,-7.957 1.872,-15.104 5.62,-21.4379 0.123,-0.2055 0.276,-0.3801 0.4,-0.5824 1.844,0.7121 3.827,1.1429 5.92,1.1429 9.108,0 16.519,-7.4105 16.519,-16.5187 0,-0.6578 -0.119,-1.2809 -0.193,-1.9168 4.693,-1.55 9.695,-2.4039 15.073,-2.4039 6.643,0 12.726,1.1598 18.251,3.4769 5.444,2.2848 10.041,5.5879 13.798,9.9 -5.166,0.5899 -9.924,2.543 -13.899,5.4965"
       style="fill:#231f20;fill-opacity:1;fill-rule:nonzero;stroke:none;stroke-width:0.1"
       id="path118" /><path
       d="M 15.1801,89.2141 V 157.766 H 0.0757813 V 76.434 H 11.7609 57.7063 V 89.2141 H 15.1801"
       style="fill:#231f20;fill-opacity:1;fill-rule:nonzero;stroke:none;stroke-width:0.1"
       id="path120" /><path
       d="m 112.384,122.169 c -0.852,-1.994 -2.13,-3.689 -3.834,-5.083 -0.852,-0.697 -1.804,-1.307 -2.855,-1.831 -3.152,-1.568 -7.1966,-2.352 -12.1333,-2.352 H 75.9004 v 32.301 h 17.6613 c 4.9367,0 8.9813,-0.784 12.1333,-2.353 1.051,-0.523 2.003,-1.133 2.855,-1.83 1.704,-1.394 2.982,-3.089 3.834,-5.084 0.852,-1.994 1.278,-4.289 1.278,-6.883 0,-2.596 -0.426,-4.891 -1.278,-6.885 z m 12.316,22.338 c -2.788,4.337 -6.797,7.668 -12.025,9.992 -5.229,2.324 -11.369,3.486 -18.4168,3.486 H 86.4945 72.3586 60.7961 v -6.503 -9.355 -65.475 h 15.1043 v 23.47 h 18.3578 c 7.0478,0 13.1878,1.162 18.4168,3.485 5.228,2.324 9.237,5.674 12.025,10.052 2.789,4.375 4.183,9.507 4.183,15.395 0,5.963 -1.394,11.114 -4.183,15.453"
       style="fill:#231f20;fill-opacity:1;fill-rule:nonzero;stroke:none;stroke-width:0.1"
       id="path122" /><path
       d="m 284.781,134.639 c -0.909,0.874 -1.805,1.648 -2.734,2.381 -0.93,0.731 -1.895,1.415 -2.961,2.087 -1.065,0.694 -2.227,1.318 -3.619,2.136 2.836,1.576 6.47,0.821 8.987,-1.156 1.273,-0.992 2.29,-2.309 2.901,-3.782 0.594,-1.476 0.829,-3.107 0.369,-4.667 -1.128,1.157 -2.014,2.13 -2.943,3.001 z m -5.555,11.4 c -6.57,0 -11.917,-5.346 -11.917,-11.917 0,-6.571 5.347,-11.918 11.917,-11.918 6.572,0 11.918,5.347 11.918,11.918 0,6.571 -5.346,11.917 -11.918,11.917"
       style="fill:#231f20;fill-opacity:1;fill-rule:nonzero;stroke:none;stroke-width:0.1"
       id="path124" /><path
       d="m 58.4926,134.362 c -4.4297,-3.519 -8.6821,-7.246 -12.6528,-11.255 4.1176,3.111 8.3493,6.034 12.6528,8.83 v 2.425"
       style="fill:#231f20;fill-opacity:1;fill-rule:nonzero;stroke:none;stroke-width:0.1"
       id="path126" /><path
       d="m 281.907,165.409 c -1.134,2.742 -2.757,5.286 -4.653,7.595 -1.865,2.346 -4.085,4.398 -6.465,6.212 -9.704,7.2 -21.609,10.292 -33.185,11.735 -23.416,2.715 -46.801,-0.586 -69.347,-5.772 -22.544,-5.465 -44.488,-13.234 -65.291,-23.381 -1.275,-0.615 -2.529,-1.271 -3.7937,-1.908 3.5487,-0.29 6.8747,-0.893 9.9407,-1.823 9.262,3.834 18.623,7.414 28.141,10.531 10.78,3.566 21.676,6.794 32.727,9.327 11.014,2.67 22.163,4.765 33.378,6.078 11.2,1.407 22.5,1.899 33.667,1.156 5.576,-0.404 11.116,-1.216 16.478,-2.609 5.359,-1.379 10.578,-3.361 15.189,-6.338 4.654,-2.884 8.654,-6.869 11.362,-11.725 0.747,-1.181 1.249,-2.485 1.858,-3.751 0.445,-1.325 1.013,-2.627 1.325,-4.007 0.841,-2.712 1.188,-5.557 1.485,-8.415 0.266,5.707 -0.347,11.677 -2.816,17.095"
       style="fill:#231f20;fill-opacity:1;fill-rule:nonzero;stroke:none;stroke-width:0.1"
       id="path128" /><path
       d="m 213.074,88.166 c 1.272,-0.991 2.289,-2.3082 2.9,-3.7808 0.489,-1.2172 0.71,-2.5352 0.525,-3.8352 -0.235,0.1219 -0.485,0.2051 -0.717,0.3309 -0.516,0.28 -0.965,0.6242 -1.462,0.9211 -0.307,0.3121 -0.614,0.63 -0.919,0.9171 -0.909,0.8739 -1.806,1.6469 -2.734,2.3809 -0.931,0.7309 -1.895,1.4148 -2.961,2.0871 -0.462,0.302 -0.954,0.591 -1.464,0.8859 -0.497,0.5032 -0.957,1.0411 -1.427,1.5711 2.71,1.0969 5.951,0.336 8.259,-1.4781 z m -6.5,-22.5699 c 7.431,0 13.48,5.7508 14.095,13.0269 0.035,0.3989 0.122,0.7821 0.122,1.1899 0,7.8391 -6.378,14.2156 -14.217,14.2156 -1.607,0 -3.124,-0.3262 -4.565,-0.8191 -5.592,-1.9133 -9.651,-7.1633 -9.651,-13.3965 0,-7.8399 6.377,-14.2168 14.216,-14.2168"
       style="fill:#231f20;fill-opacity:1;fill-rule:nonzero;stroke:none;stroke-width:0.1"
       id="path130" /><path
       d="m 190.826,71.9828 c -5.857,-2.6476 -11.826,-4.909 -17.869,-6.8887 -2.015,-0.6601 -4.038,-1.289 -6.067,-1.8921 -4.058,-1.2032 -8.144,-2.2969 -12.246,-3.3161 -4.102,-1.0179 -8.22,-1.9578 -12.341,-2.8531 -16.519,-3.4246 -33.217,-5.9 -49.871,-6.9238 -2.925,-0.1828 -5.8539,-0.3262 -8.7816,-0.443 -0.641,-0.0262 -1.2801,-0.0519 -1.9215,-0.0738 -2.9086,-0.0992 -5.8144,-0.1613 -8.7098,-0.1672 -0.1597,0 -0.3207,-0.0102 -0.4804,-0.0102 -0.5199,0 -1.0348,0.0243 -1.5539,0.0274 -1.586,0.0098 -3.1688,0.034 -4.7469,0.0797 -0.8391,0.0242 -1.6738,0.0601 -2.5098,0.0961 -1.4758,0.0629 -2.9453,0.1449 -4.4105,0.2441 -0.8391,0.0559 -1.677,0.1141 -2.5125,0.1828 -1.5363,0.1281 -3.0633,0.2879 -4.5863,0.4629 -0.7227,0.082 -1.4497,0.1524 -2.1696,0.2453 -2.2211,0.2891 -4.4285,0.6188 -6.6117,1.0219 -1.9383,0.3691 -3.8641,0.7949 -5.7547,1.2898 -3.7812,0.9903 -7.4215,2.2563 -10.7379,3.8911 -1.6582,0.8191 -3.2355,1.73 -4.7094,2.7453 -2.9246,2.0488 -5.2566,4.5418 -7.1515,7.3047 -1.241,2.205 -2.2789,4.6992 -2.9102,7.3089 H 0.0757813 0 C 0.553906,69.607 1.95938,65.0719 4.19961,60.693 c 1.99336,-3.3918 4.44687,-6.4692 7.22459,-9.102 0.9266,-0.8769 1.8887,-1.7051 2.8817,-2.4781 0.9968,-0.7707 2.0109,-1.4969 3.0398,-2.1809 1.0293,-0.6851 2.0727,-1.3281 3.1285,-1.9351 3.1664,-1.818 6.4434,-3.3 9.7637,-4.5438 3.3203,-1.2429 6.684,-2.2461 10.0258,-3.1051 2.4371,-0.5851 4.875,-1.0718 7.3129,-1.496 0.8007,-0.1399 1.6007,-0.2379 2.4015,-0.3622 1.641,-0.2519 3.2813,-0.4929 4.9203,-0.6789 0.9399,-0.107 1.8789,-0.1871 2.8184,-0.2738 1.509,-0.1383 3.0172,-0.2633 4.5238,-0.3519 0.9723,-0.0582 1.9434,-0.1043 2.9149,-0.1422 1.489,-0.0571 2.9769,-0.095 4.4633,-0.109 0.5453,-0.0059 1.0933,-0.0399 1.6382,-0.0399 0.5164,0 1.0305,0.02 1.5465,0.025 0.8059,0.0079 1.6106,0.0219 2.4149,0.0411 1.314,0.0296 2.6257,0.0757 3.9371,0.1359 0.7816,0.0348 1.5633,0.068 2.3441,0.1117 1.4086,0.0813 2.8141,0.182 4.2172,0.291 0.6539,0.0512 1.3098,0.0934 1.9617,0.15 2.0465,0.1762 4.0875,0.375 6.1203,0.6024 8.7632,1.107 17.4412,2.5668 26.0082,4.4828 8.54,2.0289 17.014,4.2859 25.286,7.1832 8.295,2.8027 16.418,6.1207 24.291,9.9539 7.819,3.9238 15.48,8.3098 22.242,13.8519 l -0.8,1.2598"
       style="fill:#231f20;fill-opacity:1;fill-rule:nonzero;stroke:none;stroke-width:0.1"
       id="path132" /><path
       d="m 58.4926,150.067 c -6.5442,-4.013 -12.9633,-8.275 -19.1309,-12.941 -3.4988,-2.647 -6.9191,-5.418 -10.2422,-8.336 -1.6609,-1.459 -3.2972,-2.954 -4.907,-4.49 -1.5988,-1.541 -3.1703,-3.126 -4.7023,-4.76 -0.7586,-0.809 -1.4739,-1.671 -2.211,-2.506 V 99.2141 c 1.6973,3.0469 3.6164,6.0189 5.7766,8.8789 2.4488,3.243 5.1492,6.363 7.9996,9.355 4.309,4.49 8.9316,8.718 13.7812,12.727 1.6161,1.337 3.2579,2.649 4.9211,3.938 2.843,2.203 5.7606,4.327 8.7149,6.404 0.0617,0.044 0.1226,0.088 0.1844,0.131 v 9.532 c -0.0614,-0.037 -0.1227,-0.075 -0.1844,-0.113"
       style="fill:#231f20;fill-opacity:1;fill-rule:nonzero;stroke:none;stroke-width:0.1"
       id="path134" /><path
       d="m 92.6234,161.397 c 7.5096,4.005 15.1746,7.744 22.9676,11.224 5.845,2.61 11.762,5.073 17.74,7.393 5.978,2.32 12.017,4.495 18.105,6.528 4.059,1.356 8.14,2.649 12.239,3.878 l -0.372,1.445 c -8.393,-1.903 -16.725,-4.111 -24.987,-6.582 -8.256,-2.494 -16.399,-5.36 -24.478,-8.415 -12.773,-4.885 -25.3142,-10.448 -37.5142,-16.764 h 13.9766 c 0.7789,0.425 1.5406,0.876 2.323,1.293"
       style="fill:#231f20;fill-opacity:1;fill-rule:nonzero;stroke:none;stroke-width:0.1"
       id="path136" /></g></svg>
