<?xml version="1.0" encoding="UTF-8" standalone="no"?>
<svg
   xmlns:dc="http://purl.org/dc/elements/1.1/"
   xmlns:cc="http://creativecommons.org/ns#"
   xmlns:rdf="http://www.w3.org/1999/02/22-rdf-syntax-ns#"
   xmlns:svg="http://www.w3.org/2000/svg"
   xmlns="http://www.w3.org/2000/svg"
   height="128"
   width="128"
   xml:space="preserve"
   viewBox="0 0 128 128"
   y="0px"
   x="0px"
   id="Capa_1"
   version="1.1"><metadata
   id="metadata51"><rdf:RDF><cc:Work
       rdf:about=""><dc:format>image/svg+xml</dc:format><dc:type
         rdf:resource="http://purl.org/dc/dcmitype/StillImage" /><dc:title></dc:title></cc:Work></rdf:RDF></metadata><defs
   id="defs49" /><g
   id="g17" /><g
   id="g19" /><g
   id="g21" /><g
   id="g23" /><g
   id="g25" /><g
   id="g27" /><g
   id="g29" /><g
   id="g31" /><g
   id="g33" /><g
   id="g35" /><g
   id="g37" /><g
   id="g39" /><g
   id="g41" /><g
   id="g43" /><g
   id="g45" /><path
   id="path4240"
   style="fill:#000000;fill-opacity:1;stroke:#ffff00;stroke-width:0;stroke-linecap:butt;stroke-miterlimit:4;stroke-dasharray:none;stroke-dashoffset:0;stroke-opacity:1"
   d="m 64,4.0000005 c -1.056843,0 -2.045797,0.5648202 -2.574219,1.4726562 L 55.402344,15.812501 c -0.229049,0.394192 -0.351563,0.839051 -0.351563,1.292969 0,1.431436 1.170671,2.59375 2.613281,2.59375 h 12.671875 c 1.44261,0 2.613281,-1.160398 2.613281,-2.589844 0,-0.455908 -0.122512,-0.906665 -0.351562,-1.296875 L 66.574218,5.4726567 C 66.043788,4.5628307 65.058849,4.0000005 64,4.0000005 Z m 0,5.0195312 3.902344,6.6953133 h -7.804689 z m 10.824218,2.0781253 1.48047,2.539062 c 0.617333,1.05169 0.945311,2.242208 0.945311,3.468751 0,2.585364 -1.49462,4.82855 -3.628905,6.007811 9.068897,2.131645 17.013471,7.206014 22.761717,14.160156 3.510382,-0.828315 7.537159,-1.201783 12.589849,-1.273438 0.55079,-0.0066 1.00315,0.433609 1.01172,0.984377 C 109.993,37.536687 109.55231,37.991438 109,38 c -4.57535,0.06488 -8.17496,0.377508 -11.300784,1.027344 3.328454,4.481222 5.786804,9.641143 7.132814,15.230468 1.19636,-2.118613 3.43008,-3.609374 6.02734,-3.609374 1.24029,0 2.44452,0.331461 3.50782,0.95703 v 0.0039 l 2.51953,1.484374 C 112.52453,31.943753 95.981079,15.426419 74.824218,11.097657 Z m -21.65625,0.0039 C 31.989636,15.439309 15.439309,31.989636 11.101563,53.167968 l 2.535156,-1.476563 c 0.0025,-0.0016 0.0053,-0.0024 0.0078,-0.0039 h 0.0039 c 1.049043,-0.613129 2.234699,-0.937406 3.457032,-0.937406 2.590907,0 4.838531,1.500103 6.015625,3.640623 C 26.752107,38.923328 38.950696,26.761585 54.417969,23.136781 52.262551,21.963851 50.75,19.706718 50.75,17.105532 c 0,-1.227945 0.331532,-2.416982 0.933594,-3.453126 v -0.0039 z M 64,26 c -21.010653,0 -38,16.989348 -38,38 0,9.030439 3.151168,17.305219 8.398438,23.820312 2.051936,-0.751699 3.953096,-1.714005 5.86328,-2.980468 3.48184,-2.308459 7.222549,-5.806273 11.925782,-10.460938 -0.177637,-0.685002 0.02001,-1.412886 0.519531,-1.914062 l 6.464844,-6.464845 H 44.027343 C 42.922758,66.000037 42.027307,65.104585 42.027344,64 c -3.7e-5,-1.104586 0.895414,-2.000038 1.999999,-2 h 15.144532 l -6.464844,-6.464845 c -0.780846,-0.781014 -0.780846,-2.04711 0,-2.828124 0.346821,-0.348577 0.809901,-0.557171 1.300781,-0.585937 0.569363,-0.03137 1.125038,0.181818 1.527343,0.585937 L 62,59.171875 V 44.027343 c -3.8e-5,-1.104585 0.895414,-2.000036 2,-1.999999 1.104585,-3.7e-5 2.000037,0.895414 1.999999,1.999999 v 15.144532 l 6.464845,-6.464844 c 0.389246,-0.389782 0.922025,-0.601766 1.472655,-0.585937 0.155868,0.0054 0.310558,0.02899 0.460938,0.07031 4.73032,-4.687697 8.544111,-8.252567 12.234374,-10.699217 1.811805,-1.201228 3.644535,-2.138904 5.582032,-2.902344 C 85.263213,30.874765 75.220136,26 64,26 Z m 29.601561,14.179687 c -2.051936,0.751699 -3.953096,1.714013 -5.86328,2.980468 -3.481836,2.308463 -7.222549,5.806273 -11.925782,10.460939 0.177637,0.685001 -0.02001,1.412885 -0.519531,1.914061 L 68.828124,62 h 15.144532 c 1.104585,-3.8e-5 2.000037,0.895414 1.999999,2 3.8e-5,1.104585 -0.895414,2.000037 -1.999999,1.999999 H 68.828124 l 6.464844,6.464845 c 0.780846,0.781014 0.780846,2.04711 0,2.828124 -0.781014,0.780846 -2.04711,0.780846 -2.828124,0 l -6.464845,-6.464844 v 15.144532 c 3.8e-5,1.104585 -0.895414,2.000037 -1.999999,1.999999 -1.104586,3.8e-5 -2.000038,-0.895414 -2,-1.999999 V 68.828124 l -6.464845,6.464844 c -0.506023,0.505153 -1.24323,0.701741 -1.933593,0.515625 -4.73032,4.687699 -8.544111,8.252569 -12.234374,10.699219 -1.811803,1.201228 -3.644527,2.138902 -5.582032,2.902342 C 42.736786,97.125236 52.779862,102 64,102 85.010651,102 102,85.010647 102,64 102,54.969558 98.848831,46.69478 93.601561,40.179687 Z M 17.109376,55.050781 c -0.455909,0 -0.906665,0.122513 -1.296875,0.351563 L 5.4726567,61.425781 C 4.5628291,61.956211 4.0000005,62.94115 4.0000005,64 c 0,1.056842 0.5648196,2.045796 1.4726562,2.574218 l 10.3398443,6.023438 c 0.394192,0.229048 0.83905,0.351562 1.292969,0.351562 1.431435,0 2.59375,-1.170671 2.59375,-2.613281 V 57.664062 c 0,-1.44261 -1.1604,-2.613281 -2.589844,-2.613281 z m 93.749994,0 c -1.41119,0 -2.55859,1.170673 -2.55859,2.613281 v 12.671875 c 0,1.442608 1.1474,2.613281 2.55859,2.613281 0.44813,0 0.88819,-0.122512 1.27735,-0.351562 l 10.51562,-6.203125 C 123.48176,65.90027 124,64.984509 124,64 c 0,-0.98451 -0.52018,-1.902279 -1.35156,-2.394532 l -10.51563,-6.20703 c -0.38916,-0.22905 -0.82925,-0.347657 -1.27344,-0.347657 z m -95.144525,5.046874 v 7.804689 L 9.0195317,64 Z m 96.515625,0 L 118.84375,64 112.23047,67.902344 Z M 23.136719,73.582031 c -1.173175,2.155756 -3.430673,3.667968 -6.031249,3.667968 -1.227945,0 -2.416987,-0.331539 -3.453126,-0.933594 l -0.0039,-0.0039 -2.550781,-1.484375 c 4.336108,21.183571 20.890635,37.7381 42.074212,42.07421 l -1.48047,-2.53906 c -0.0016,-0.002 -0.0024,-0.005 -0.0039,-0.008 v -0.004 c -0.613133,-1.04897 -0.937406,-2.23852 -0.937406,-3.46086 0,-2.58441 1.493141,-4.82543 3.624999,-6.00391 -9.067429,-2.13215 -17.010405,-7.20695 -22.757873,-14.160151 -3.51038,0.828317 -7.537157,1.201779 -12.589843,1.273438 -0.553818,0.0086 -1.009203,-0.434436 -1.015625,-0.988283 -0.0065,-0.5523 0.43598,-1.005285 0.988281,-1.011718 4.575344,-0.06488 8.174954,-0.377508 11.300782,-1.027344 -3.359805,-4.523434 -5.826837,-9.74038 -7.164064,-15.390625 z m 81.707031,0.179681 c -3.67488,15.394526 -15.845906,27.488138 -31.261719,31.101558 2.155756,1.17318 3.667968,3.43068 3.667968,6.03126 0,1.22794 -0.331535,2.41698 -0.933594,3.45312 l -0.0039,0.004 -1.484375,2.55078 c 21.156419,-4.33073 37.69834,-20.849599 42.05855,-41.999998 l -2.51562,1.484374 -0.004,0.0039 c -1.04789,0.616716 -2.2573,0.957032 -3.50781,0.957032 -2.58794,0 -4.81596,-1.479546 -6.01563,-3.585938 z M 57.664062,108.30078 c -1.44261,0 -2.613281,1.1604 -2.613281,2.58984 0,0.45591 0.122513,0.90667 0.351563,1.29688 l 6.023437,10.33984 C 61.956211,123.43717 62.94115,124 64,124 c 1.056842,0 2.045796,-0.56482 2.574218,-1.47266 l 6.023438,-10.33984 c 0.229048,-0.39419 0.351562,-0.83905 0.351562,-1.29297 0,-1.43143 -1.170671,-2.59375 -2.613281,-2.59375 z m 2.433593,3.98437 h 7.804689 L 64,118.98047 Z" /><polygon
   transform="matrix(1,0,0,1.0041673,4.6666667e-7,-0.12451623)"
   points="49.888,29.908 49.875,29.908 49.888,29.909 "
   id="polygon15" />
</svg>
