<?xml version="1.0" encoding="UTF-8"?>
<svg width="16" height="16" viewBox="0 0 16 16" version="1.1" xmlns="http://www.w3.org/2000/svg"><path d="m12.093 3.6579c-0.96241 0.00144-1.9176 0.15682-2.8469 0.37057-1.2389 0.30034-2.4447 0.72726-3.588 1.2849-0.070069 0.033797-0.13909 0.069941-0.2086 0.10495 0.19502 0.015937 0.37786 0.048891 0.54635 0.1 0.509-0.2107 1.0235-0.40735 1.5466-0.57865 0.59242-0.19597 1.1911-0.3733 1.7985-0.5125 0.60527-0.14674 1.218-0.26196 1.8344-0.33411 0.6155-0.077322 1.2366-0.10437 1.8502-0.063541 0.30644 0.022202 0.6108 0.066936 0.90547 0.14349 0.2945 0.075784 0.58124 0.18457 0.83464 0.34817 0.25576 0.15849 0.47566 0.37766 0.62447 0.64452 0.04105 0.064902 0.06861 0.13641 0.10208 0.20599 0.02445 0.072816 0.05577 0.14447 0.07292 0.22031 0.04622 0.14904 0.06519 0.30544 0.08151 0.4625 0.01462-0.31364-0.019-0.64184-0.15469-0.93958-0.062321-0.15069-0.15154-0.29055-0.25573-0.41745-0.10249-0.12892-0.22467-0.24171-0.35546-0.3414-0.53329-0.39567-1.1875-0.56549-1.8237-0.64479-0.32171-0.037301-0.64326-0.053864-0.96406-0.053385zm-3.119 0.00313c-0.46124 0.10457-0.91914 0.22592-1.3731 0.36172-0.45371 0.13706-0.90132 0.29461-1.3452 0.4625-0.70195 0.26846-1.391 0.574-2.0615 0.92108h0.76797c0.042805-0.023356 0.084606-0.047917 0.1276-0.070834 0.4127-0.2201 0.83397-0.42569 1.2622-0.61692 0.32121-0.14344 0.64647-0.27875 0.975-0.40625 0.32852-0.1275 0.66022-0.24712 0.99478-0.35885 0.22306-0.07452 0.44739-0.14547 0.67265-0.21302zm0.027865 1.8101c-0.39062 0-0.72081 0.059516-0.99036 0.17839-0.26966 0.11886-0.47124 0.27909-0.60495 0.48072-0.13371 0.20164-0.20052 0.42572-0.20052 0.67187 0 0.29296 0.075244 0.52544 0.22604 0.6974 0.15057 0.17195 0.33125 0.29834 0.5414 0.3789 0.21015 0.080675 0.4848 0.16136 0.82447 0.24192 0.24197 0.059517 0.4333 0.11246 0.57344 0.15911 0.14009 0.046767 0.25554 0.11151 0.34687 0.19427 0.091281 0.082817 0.13697 0.188 0.13697 0.31536 0 0.17411-0.08193 0.31399-0.24531 0.42005-0.16344 0.10618-0.41056 0.15937-0.74166 0.15937-0.26747 0-0.53395-0.04566-0.79922-0.13697-0.26537-0.09126-0.48936-0.209-0.67187-0.35339l-0.28672 0.64322c0.18674 0.16141 0.44059 0.29082 0.7612 0.38854 0.3205 0.097546 0.6527 0.14635 0.99661 0.14635 0.39057 0 0.72147-0.059522 0.99322-0.17839 0.27165-0.11882 0.47457-0.278 0.60834-0.4776 0.13376-0.19947 0.20052-0.42225 0.20052-0.66849 0-0.28866-0.07546-0.5181-0.22604-0.68802-0.15074-0.1697-0.33229-0.29589-0.54454-0.37865-0.21235-0.082764-0.484-0.16262-0.8151-0.23906-0.24202-0.059352-0.4331-0.1124-0.57317-0.15911-0.14014-0.046657-0.25585-0.11015-0.34714-0.19089-0.091336-0.080565-0.13672-0.18485-0.13671-0.31224 0-0.18245 0.079595-0.32886 0.2388-0.43932 0.15921-0.1103 0.40217-0.16562 0.72916-0.16562 0.19949 0 0.40515 0.029916 0.61745 0.089322 0.21224 0.059517 0.41609 0.1463 0.61146 0.26094l0.2612-0.64322c-0.19102-0.12734-0.41832-0.22472-0.68151-0.29271-0.26329-0.06787-0.5307-0.10208-0.80235-0.10208zm4.082 0c-0.45002 0-0.85655 0.098692-1.2195 0.2961-0.36292 0.1974-0.64856 0.47045-0.85651 0.81849-0.20811 0.3482-0.31197 0.7409-0.31197 1.1781 0 0.43729 0.10288 0.83004 0.30885 1.1781 0.0068 0.011294 0.01506 0.020914 0.02187 0.032031 0.10134-0.039134 0.21024-0.063021 0.32526-0.063021 0.50054 0 0.90781 0.40726 0.90781 0.90781 0 0.03615-0.0066 0.070522-0.01067 0.10547 0.2579 0.085181 0.53284 0.13202 0.82838 0.13202 0.36507 0 0.6995-0.063809 1.0031-0.19115 0.29917-0.12556 0.55186-0.30704 0.75834-0.54401-0.2839-0.032419-0.54535-0.13977-0.7638-0.30209-0.27406 0.20722-0.59174 0.3112-0.95312 0.3112-0.30566 0-0.57932-0.066825-0.82135-0.20052-0.24198-0.13374-0.43087-0.31944-0.56666-0.55729-0.13596-0.23769-0.2039-0.50711-0.2039-0.8086 0-0.30144 0.06795-0.57106 0.2039-0.80885 0.1358-0.23774 0.3247-0.42359 0.56666-0.55729 0.24202-0.13371 0.51569-0.20052 0.82135-0.20052 0.35089 0 0.66065 0.09684 0.92916 0.28985 0.21494-0.16608 0.47345-0.27833 0.75521-0.31642-0.2002-0.21939-0.44079-0.38925-0.72265-0.50834-0.30154-0.12734-0.63461-0.19115-0.99974-0.19115zm-9.7432 0.051817v4.4695h0.82995v-1.2899h1.0088c0.38731 0 0.72487-0.063745 1.0122-0.1914 0.28731-0.12771 0.50746-0.31175 0.66067-0.55235 0.15327-0.24042 0.22995-0.52251 0.22995-0.8461 0-0.3277-0.076676-0.61076-0.22995-0.84922-0.15321-0.23834-0.37337-0.4215-0.66067-0.54922-0.28736-0.12771-0.62492-0.1914-1.0122-0.1914h-1.2034zm-3.337 0.011979v4.4695h3.1671v-0.70235h-2.3372v-3.7671zm3.2206 0.41692c-0.00338 0.00203-0.00676 0.00416-0.010156 0.00625-0.35964 0.22054-0.71261 0.45477-1.0516 0.7112-0.19227 0.14546-0.38014 0.29771-0.56276 0.45807-0.091276 0.08018-0.18106 0.1622-0.26952 0.24661-0.087862 0.084686-0.1744 0.17192-0.2586 0.26171-0.04169 0.044459-0.080846 0.091872-0.12135 0.13776v0.97916c0.093276-0.16745 0.19874-0.33085 0.31745-0.48802 0.13457-0.17822 0.28294-0.34964 0.43959-0.51406 0.2368-0.24675 0.49077-0.47916 0.75729-0.69947 0.088814-0.073475 0.17917-0.14556 0.27057-0.2164 0.15624-0.12107 0.31655-0.23767 0.4789-0.35182 0.00339-0.00242 0.00676-0.00493 0.010156-0.00729zm12.12 0.2276c-0.36106 0-0.65495 0.29357-0.65495 0.65469s0.29389 0.65495 0.65495 0.65495c0.36117 0 0.65495-0.29384 0.65495-0.65495s-0.29377-0.65469-0.65495-0.65469zm-11.174 0.045834h0.97057c0.2713 0 0.49371 0.042941 0.66692 0.12916 0.057759 0.028742 0.10995 0.062477 0.15677 0.10078 0.093645 0.076608 0.16385 0.16952 0.21067 0.27916 0.046822 0.10958 0.070312 0.23582 0.070312 0.37839 0 0.14266-0.02349 0.2688-0.070312 0.37839-0.046822 0.10958-0.11703 0.20282-0.21067 0.27942-0.046822 0.038304-0.099012 0.071724-0.15677 0.10052-0.17322 0.08617-0.39562 0.12916-0.66692 0.12916h-0.97057zm11.156 0.1711c0.10872 5.625e-4 0.21901 0.042251 0.30547 0.11016 0.06996 0.054516 0.1258 0.12686 0.15938 0.20781 0.03264 0.081115 0.04559 0.17077 0.02031 0.25651-0.06199-0.063584-0.11066-0.11724-0.16172-0.1651-0.04995-0.048031-0.09921-0.090446-0.15026-0.13072-0.05111-0.040172-0.10418-0.077914-0.16276-0.11484-0.05853-0.038139-0.1222-0.072233-0.1987-0.11719 0.05844-0.032479 0.12305-0.04695 0.18827-0.046615zm-12.112 0.42474c-0.24344 0.19339-0.4771 0.39817-0.69531 0.61849 0.22629-0.17096 0.45881-0.3315 0.69531-0.48515zm8.1377 2.2164c-0.08831 0-0.17159 0.017965-0.25078 0.045052-0.30731 0.10515-0.53047 0.39365-0.53047 0.7362 0 0.43085 0.35045 0.78125 0.78125 0.78125 0.40837 0 0.74094-0.31602 0.77474-0.71589 0.0019-0.021922 0.0065-0.042954 0.0065-0.065365 0-0.4308-0.35045-0.78125-0.78125-0.78125zm0.07891 0.21406c0.09969 0.0063 0.19911 0.046024 0.27839 0.10833 0.0699 0.054461 0.1258 0.12662 0.15938 0.20755 0.02687 0.066892 0.03907 0.1395 0.02891 0.21094-0.01291-0.0067-0.02683-0.011316-0.03958-0.018229-0.02836-0.015388-0.05289-0.034204-0.08021-0.05052-0.01687-0.017151-0.03376-0.034742-0.05052-0.050521-0.04996-0.048026-0.09926-0.090391-0.15026-0.13072-0.05116-0.040167-0.10418-0.077897-0.16276-0.11484-0.02539-0.016596-0.05244-0.032491-0.08047-0.048697-0.02731-0.027654-0.05256-0.057071-0.07839-0.086197 0.05585-0.022605 0.11571-0.030861 0.17552-0.027084zm-11.431 0.86953c0.03044 0.25872 0.10762 0.50779 0.23072 0.74844 0.10955 0.1864 0.24449 0.35557 0.39714 0.50026 0.050922 0.04819 0.10376 0.09372 0.15834 0.1362 0.05478 0.04235 0.11038 0.0822 0.16692 0.11979 0.056565 0.03765 0.11411 0.07289 0.17214 0.10625 0.17401 0.09991 0.35399 0.18139 0.53646 0.24974 0.18247 0.0683 0.36739 0.12363 0.55104 0.17084 0.13394 0.03215 0.26785 0.05872 0.40182 0.08203 0.044002 0.0077 0.088022 0.01322 0.13202 0.02005 0.090182 0.01384 0.18024 0.02702 0.27031 0.03724 0.051652 0.0059 0.10332 0.01034 0.15495 0.0151 0.082929 0.0076 0.1659 0.0144 0.2487 0.01927 0.053434 0.0032 0.10677 0.0057 0.16016 0.0078 0.081828 0.0031 0.16362 0.0052 0.24531 6e-3 0.029968 3.75e-4 0.059899 0.0021 0.089843 0.0021 0.028379 0 0.056799-1e-3 0.085156-0.0013 0.044289-5e-4 0.088351-1e-3 0.13255-0.0021 0.072211-0.0016 0.14434-0.0042 0.2164-0.0076 0.042954-0.0019 0.085996-0.0038 0.1289-0.0062 0.07741-0.0045 0.15466-0.0099 0.23177-0.01588 0.035935-0.0028 0.071987-0.0052 0.10781-0.0083 0.11247-0.0097 0.22449-0.02058 0.3362-0.03307 0.48159-0.06084 0.95862-0.14106 1.4294-0.24635 0.46932-0.1115 0.93498-0.23558 1.3896-0.39479 0.45586-0.15402 0.90222-0.33622 1.3349-0.54687 0.4297-0.21564 0.85078-0.45662 1.2224-0.7612l-0.04401-0.06927c-0.32187 0.1455-0.64994 0.26959-0.98204 0.37839-0.11073 0.03628-0.22182 0.07102-0.33334 0.10417-0.22301 0.06612-0.44775 0.12602-0.67317 0.18204-0.22542 0.05594-0.45165 0.10783-0.67812 0.15702-0.90781 0.1882-1.8254 0.3242-2.7406 0.38047-0.16075 0.01004-0.32166 0.0178-0.48255 0.02422-0.035226 0.0014-0.070481 3e-3 -0.10573 0.0042-0.15985 0.0054-0.31952 0.0088-0.47865 0.0091-0.00878 0-0.017525 5.25e-4 -0.026302 5.25e-4 -0.028571 0-0.056888-0.0014-0.085416-0.0016-0.08716-5.38e-4 -0.17421-0.0016-0.26094-0.0042-0.046114-0.0013-0.091817-0.0035-0.13776-0.0055-0.081104-0.0035-0.16192-0.0078-0.24245-0.01328-0.046114-0.0031-0.092105-0.0064-0.13802-0.01016-0.084429-7e-3 -0.16839-0.01564-0.25209-0.02526-0.039716-0.0045-0.079709-0.0084-0.11927-0.01354-0.12206-0.01589-0.2433-0.0341-0.36327-0.05625-0.10652-0.020246-0.21251-0.043597-0.3164-0.070795-0.2078-0.054422-0.40785-0.12396-0.5901-0.2138-0.091127-0.045014-0.17785-0.095245-0.25885-0.15104-0.16072-0.11259-0.28884-0.24946-0.39296-0.4013-0.0682-0.12118-0.1252-0.25815-0.1599-0.40156h-0.66485z"/></svg>
