<?xml version="1.0" encoding="UTF-8"?>
<svg width="29.477" height="16" version="1.1" viewBox="0 0 29.477 16" xmlns="http://www.w3.org/2000/svg"><path d="m22.28 2.9684e-5c-1.7731 0.00265-3.533 0.28893-5.2451 0.68274-2.2825 0.55335-4.5041 1.3399-6.6105 2.3673-0.1291 0.062267-0.25626 0.12886-0.38432 0.19336 0.3593 0.029363 0.69617 0.090077 1.0066 0.18424 0.93778-0.38819 1.8857-0.7505 2.8495-1.0661 1.0915-0.36106 2.1945-0.68777 3.3136-0.94423 1.1152-0.27035 2.244-0.48263 3.3797-0.61556 1.134-0.14246 2.2783-0.19229 3.4088-0.11707 0.56458 0.040905 1.1253 0.12332 1.6682 0.26437 0.54259 0.13962 1.0709 0.34005 1.5377 0.64147 0.47121 0.292 0.87636 0.6958 1.1505 1.1875 0.07563 0.11958 0.1264 0.25132 0.18807 0.37952 0.04504 0.13416 0.10275 0.26617 0.13434 0.4059 0.08515 0.27459 0.1201 0.56274 0.15017 0.85211 0.02694-0.57785-0.035-1.1825-0.285-1.7311-0.11481-0.27763-0.27919-0.53531-0.47114-0.76911-0.18883-0.23752-0.41393-0.44533-0.6549-0.629-0.98253-0.72898-2.1878-1.0419-3.36-1.188-0.59272-0.068723-1.1851-0.099239-1.7762-0.098356zm-5.7464 0.0057664c-0.84979 0.19266-1.6934 0.41624-2.5298 0.66643-0.83592 0.25252-1.6606 0.54279-2.4784 0.85211-1.2933 0.49461-2.5628 1.0575-3.7981 1.697h1.4149c0.078864-0.043031 0.15588-0.088282 0.23509-0.1305 0.76036-0.40551 1.5365-0.78429 2.3255-1.1366 0.5918-0.26427 1.1911-0.51357 1.7963-0.74847 0.60526-0.23491 1.2164-0.45529 1.8328-0.66114 0.41097-0.1373 0.82427-0.26801 1.2393-0.39247zm0.05134 3.3349c-0.71968 0-1.328 0.10965-1.8246 0.32867-0.49682 0.21899-0.86821 0.5142-1.1146 0.88568-0.24635 0.3715-0.36944 0.78435-0.36944 1.2379 0 0.53975 0.13863 0.96807 0.41646 1.2849 0.27741 0.3168 0.6103 0.54966 0.99748 0.69808 0.38718 0.14864 0.8932 0.29729 1.519 0.44571 0.44581 0.10965 0.79831 0.2072 1.0565 0.29314 0.2581 0.08616 0.47081 0.20545 0.63907 0.35792 0.16818 0.15258 0.25235 0.34637 0.25235 0.58102 0 0.32078-0.15095 0.5785-0.45196 0.7739-0.30112 0.19563-0.75642 0.29362-1.3664 0.29362-0.49279 0-0.98375-0.08412-1.4725-0.25235-0.48892-0.16814-0.9016-0.38506-1.2379-0.65108l-0.52825 1.1851c0.34405 0.29738 0.81174 0.53581 1.4024 0.71585 0.59049 0.17972 1.2025 0.26964 1.8362 0.26964 0.71958 0 1.3292-0.10966 1.8299-0.32867 0.50049-0.21891 0.87435-0.51219 1.1208-0.87993 0.24644-0.3675 0.36944-0.77795 0.36944-1.2316 0-0.53183-0.13902-0.95455-0.41646-1.2676-0.27772-0.31266-0.61221-0.54515-1.0033-0.69762-0.39123-0.15248-0.89172-0.29961-1.5017-0.44044-0.4459-0.10935-0.79794-0.20709-1.056-0.29314-0.25819-0.085961-0.47138-0.20294-0.63957-0.3517-0.16828-0.14843-0.25189-0.34057-0.25187-0.57527 0-0.33615 0.14664-0.60589 0.43996-0.8094 0.29333-0.20322 0.74096-0.30514 1.3434-0.30514 0.36754 0 0.74645 0.055117 1.1376 0.16457 0.39103 0.10965 0.7666 0.26954 1.1266 0.48076l0.48124-1.1851c-0.35194-0.23461-0.77071-0.41402-1.2556-0.53929-0.48508-0.12504-0.97776-0.18807-1.4782-0.18807zm7.5207 0c-0.82912 0-1.5781 0.18183-2.2468 0.54553-0.66864 0.36369-1.1949 0.86676-1.578 1.508-0.38342 0.64152-0.57477 1.365-0.57477 2.1705 0 0.80566 0.18955 1.5293 0.56903 2.1705 0.01253 0.02081 0.02774 0.03853 0.04029 0.05901 0.18671-0.0721 0.38735-0.11611 0.59926-0.11611 0.9222 0 1.6725 0.75034 1.6725 1.6725 0 0.0666-0.01216 0.12993-0.01966 0.19432 0.47516 0.15694 0.9817 0.24323 1.5262 0.24323 0.67261 0 1.2888-0.11756 1.8481-0.35217 0.55119-0.23133 1.0167-0.56569 1.3972-1.0023-0.52306-0.05973-1.0048-0.25751-1.4072-0.55657-0.50493 0.38178-1.0902 0.57336-1.756 0.57336-0.56315 0-1.0673-0.12312-1.5133-0.36944-0.44582-0.2464-0.79383-0.58854-1.044-1.0268-0.25049-0.43792-0.37566-0.9343-0.37566-1.4898 0-0.55537 0.12519-1.0521 0.37566-1.4902 0.2502-0.43801 0.59823-0.78042 1.044-1.0268 0.4459-0.24635 0.95011-0.36944 1.5133-0.36944 0.64648 0 1.2172 0.17842 1.7119 0.53402 0.39601-0.30598 0.87229-0.51279 1.3914-0.58297-0.36885-0.4042-0.81211-0.71715-1.3314-0.93656-0.55556-0.23461-1.1692-0.35217-1.8419-0.35217zm-17.951 0.095468v8.2346h1.5291v-2.3765h1.8586c0.71358 0 1.3355-0.11744 1.8649-0.35264 0.52934-0.23529 0.93494-0.57437 1.2172-1.0176 0.28238-0.44295 0.42366-0.96267 0.42366-1.5589 0-0.60375-0.14127-1.1253-0.42366-1.5646-0.28227-0.43912-0.6879-0.77657-1.2172-1.0119-0.52943-0.23529-1.1514-0.35264-1.8649-0.35264h-2.2171zm-6.1481 0.02207v8.2346h5.8351v-1.294h-4.3061v-6.9405zm5.9336 0.76813c-0.00623 0.00374-0.012454 0.00766-0.018711 0.011514-0.6626 0.40632-1.3129 0.83787-1.9375 1.3103-0.35424 0.268-0.70037 0.5485-1.0368 0.84395-0.16817 0.14772-0.33358 0.29884-0.49656 0.45436-0.16188 0.15602-0.32131 0.31674-0.47644 0.48217-0.07681 0.08191-0.14895 0.16926-0.22358 0.25381v1.804c0.17185-0.30851 0.36616-0.60956 0.58487-0.89913 0.24793-0.32835 0.52129-0.64418 0.8099-0.9471 0.43628-0.45461 0.90419-0.8828 1.3952-1.2887 0.16363-0.13537 0.3301-0.26818 0.4985-0.3987 0.28786-0.22306 0.58321-0.43788 0.88233-0.64819 0.00625-0.00446 0.012454-0.00908 0.018711-0.013431zm22.33 0.41933c-0.66522 0-1.2067 0.54087-1.2067 1.2062s0.54146 1.2067 1.2067 1.2067c0.66542 0 1.2067-0.54137 1.2067-1.2067 0-0.66531-0.54124-1.2062-1.2067-1.2062zm-20.587 0.084444h1.7882c0.49984 0 0.90961 0.079115 1.2287 0.23796 0.10642 0.052954 0.20257 0.11511 0.28883 0.18568 0.17253 0.14114 0.30188 0.31232 0.38814 0.51432 0.08626 0.20189 0.12954 0.43447 0.12954 0.69715 0 0.26284-0.04328 0.49524-0.12954 0.69714-0.08626 0.20189-0.21562 0.37368-0.38814 0.5148-0.08626 0.07057-0.18242 0.13214-0.28883 0.1852-0.31914 0.15876-0.72889 0.23796-1.2287 0.23796h-1.7882zm20.554 0.31523c0.20031 0.00104 0.4035 0.077844 0.5628 0.20296 0.12889 0.10044 0.23177 0.23373 0.29364 0.38287 0.06013 0.14945 0.08399 0.31463 0.03742 0.47259-0.11421-0.11715-0.20388-0.216-0.29795-0.30418-0.092024-0.088492-0.1828-0.16664-0.27684-0.24084-0.094161-0.074014-0.19194-0.14355-0.29987-0.21158-0.10783-0.070266-0.22514-0.13308-0.36609-0.21591 0.10767-0.059839 0.22671-0.086501 0.34687-0.085884zm-22.315 0.78254c-0.44851 0.3563-0.87901 0.73359-1.281 1.1395 0.41692-0.31498 0.84531-0.61076 1.281-0.89384zm14.993 4.0835c-0.1627 0-0.31614 0.0331-0.46204 0.083-0.56619 0.19373-0.97734 0.72526-0.97734 1.3564 0 0.7938 0.64567 1.4394 1.4394 1.4394 0.75238 0 1.3651-0.58224 1.4274-1.319 0.0035-0.04039 0.01197-0.07914 0.01197-0.12043 0-0.7937-0.64567-1.4394-1.4394-1.4394zm0.14538 0.39438c0.18366 0.01161 0.36684 0.08479 0.5129 0.19959 0.12878 0.10034 0.23177 0.23328 0.29364 0.38239 0.0495 0.12324 0.07198 0.25702 0.05326 0.38864-0.02378-0.01234-0.04943-0.02085-0.07292-0.03359-0.05225-0.02835-0.09744-0.06302-0.14777-0.09308-0.03108-0.0316-0.0622-0.06401-0.09307-0.09308-0.09204-0.08848-0.18287-0.16654-0.27684-0.24084-0.09425-0.074-0.19194-0.14352-0.29987-0.21158-0.04678-0.03058-0.09661-0.05986-0.14825-0.08972-0.05031-0.05095-0.09683-0.10515-0.14442-0.15881 0.10289-0.04165 0.21318-0.05686 0.32338-0.0499zm-21.06 1.602c0.056083 0.47666 0.19828 0.93555 0.42508 1.3789 0.20183 0.34342 0.45045 0.6551 0.73169 0.92168 0.093819 0.08878 0.19117 0.17266 0.29173 0.25094 0.10093 0.07802 0.20336 0.15144 0.30753 0.2207 0.10422 0.06936 0.21024 0.13429 0.31715 0.19575 0.3206 0.18407 0.65219 0.33419 0.98837 0.46012 0.33618 0.12583 0.67688 0.22778 1.0152 0.31476 0.24677 0.05923 0.49349 0.10818 0.74031 0.15113 0.08107 0.01419 0.16217 0.02435 0.24323 0.03694 0.16615 0.0255 0.33207 0.04978 0.49802 0.06861 0.095163 0.01087 0.19036 0.01905 0.28548 0.02782 0.15279 0.014 0.30565 0.02653 0.4582 0.0355 0.098446 0.0059 0.19671 0.0105 0.29508 0.01437 0.15076 0.0057 0.30145 0.0096 0.45196 0.01105 0.055213 6.91e-4 0.11036 0.0039 0.16553 0.0039 0.052285 0 0.10465-0.0018 0.15689-0.0024 0.081598-9.21e-4 0.16278-0.0018 0.24421-0.0039 0.13304-0.0029 0.26593-0.0077 0.3987-0.014 0.079139-0.0035 0.15844-7e-3 0.23749-0.01142 0.14262-0.0083 0.28495-0.01824 0.42701-0.02926 0.066208-0.0052 0.13263-0.0096 0.19863-0.01529 0.20721-0.01787 0.4136-0.03791 0.61941-0.06093 0.88728-0.11209 1.7662-0.25989 2.6335-0.45388 0.86467-0.20543 1.7226-0.43403 2.5602-0.72736 0.83988-0.28377 1.6622-0.61945 2.4594-1.0076 0.79168-0.3973 1.5675-0.84128 2.2521-1.4024l-0.08108-0.12762c-0.59301 0.26807-1.1974 0.49669-1.8093 0.69715-0.20401 0.06684-0.40868 0.13084-0.61415 0.19192-0.41087 0.12182-0.82493 0.23218-1.2402 0.33539-0.41531 0.10306-0.83212 0.19867-1.2494 0.28929-1.6725 0.34674-3.3631 0.5973-5.0493 0.70098-0.29617 0.0185-0.59263 0.03279-0.88905 0.04462-0.064899 0.0026-0.12985 0.0055-0.1948 0.0077-0.29451 0.0099-0.58868 0.01621-0.88186 0.01676-0.016176 0-0.032288 9.68e-4 -0.048459 9.68e-4 -0.052639 0-0.10481-0.0026-0.15737-0.0029-0.16058-9.91e-4 -0.32096-0.0029-0.48076-0.0077-0.084961-0.0024-0.16916-0.0064-0.25381-0.01013-0.14943-0.0064-0.29832-0.01437-0.44669-0.02447-0.084961-0.0057-0.16969-0.01179-0.25429-0.01872-0.15555-0.0129-0.31024-0.02881-0.46445-0.04654-0.073173-0.0083-0.14686-0.01547-0.21974-0.02494-0.22488-0.02931-0.44826-0.06286-0.66929-0.10366-0.19625-0.03731-0.39153-0.08033-0.58294-0.13044-0.38285-0.10026-0.75143-0.22838-1.0872-0.3939-0.16789-0.08293-0.32767-0.17548-0.47691-0.27828-0.29611-0.20744-0.53216-0.45961-0.72399-0.73936-0.12565-0.22326-0.23067-0.47561-0.2946-0.73983h-1.2249z"/></svg>
