<?xml version="1.0" encoding="UTF-8"?>
<svg width="16" height="16" viewBox="0 0 16 16" version="1.1" xmlns="http://www.w3.org/2000/svg"><path d="m5.9463 0.27734-2.5e-4 2.4413e-4c-3.2825 2.36e-6 -5.9461 2.6636-5.9461 5.9461 1.18e-6 0.48536 0.05815 0.97054 0.17553 1.4411 1.31e-6 -2.5e-6 1.2717 5.0872 1.2717 5.0872 1.1e-6 0 0.82785-0.44871 0.82785-0.44871l-0.44579-1.7873c1.1075 1.062 2.5826 1.6536 4.1169 1.6536 0.48104 3e-6 0.95877-0.05683 1.4255-0.17236 0 1e-6 -3.5585 3.691-3.5917 3.7255h1.2453c0.033404-0.03448 5.193-5.3607 5.193-5.3607 0.56611-0.58438 1.0069-1.2805 1.2937-2.0422-2e-6 -3e-6 1.5288 7.3691 1.5358 7.4029h0.93942c-0.007012-0.033884-2.2174-10.707-2.2174-10.707-0.32407-1.5671-1.2651-2.9343-2.6119-3.7983-1.2e-6 -3.6e-6 6.8204 0 6.8421 0v-0.93968c-0.02169 2.31e-6 -10.053 0-10.053 0zm0.00439 0.94772c2.7758-9e-7 5.0267 2.2527 5.0267 5.0282-1e-6 2.7756-2.2509 5.0299-5.0267 5.0299-2.7753-3e-6 -5.0314-2.2544-5.0314-5.0299 1.2e-6 -2.7756 2.2561-5.0282 5.0314-5.0282zm2.2161 0.77634c-0.031922-2.625e-4 -0.062897 4.5e-4 -0.094724 0.00146-1.9733 0.06326-3.7933 1.1036-4.8497 2.7814 1e-6 -3.3e-6 0.77342 0 0.77342 0 1.004-1.3497 2.5857-2.1447 4.2673-2.1447 0.39595-2.4e-6 0.78969 0.041434 1.1755 0.1289-0.29508-0.29614-0.62763-0.55011-0.98752-0.76242-0.063517-0.00236-0.12494-0.00317-0.18798-0.00317-0.031978 0-0.064266-0.00121-0.096189-0.00147zm6.4817 0.38818c0-1.3e-6 -0.68162 3.8526-0.68162 3.8526-0.49624-1.6528-1.685-3.0087-3.2579-3.7174 0.27717 0.35462 0.51456 0.74353 0.70652 1.1506 1.3621 1.0021 2.1647 2.5884 2.1647 4.2799-1e-6 0.85741-0.20746 1.7056-0.60423 2.4661-1e-6 -1e-6 0.18798 0.91599 0.18798 0.91599 0.48516-0.70369 0.81243-1.5018 0.96115-2.3432l1.1711-6.6046c0-2e-7 -0.64768 0-0.64768 0zm-12.119 2.8122c-0.081703 6.623e-4 -0.1629 0.0071585-0.24243 0.020263-0.29304 0.048285-0.56067 0.18721-0.73679 0.44408-0.015068 0.021977-0.030765 0.043145-0.044433 0.066893-0.18312 0.32062-0.16346 0.70682 0.012695 1.021h2.5e-4c0.17718 0.30144 0.51091 0.44549 0.84422 0.46533h2.5e-4c0.28102 0.01286 0.56857-0.019748 0.8176-0.15722l9.749e-4 -7.375e-4v-0.00122c0-0.058298 0.01294-0.11702 0.01294-0.17577v-0.00415l-0.00317 0.00244c-0.2739 0.2083-0.64525 0.29976-0.97777 0.17577-0.26083-0.097482-0.44299-0.31929-0.49535-0.5996-0.064816-0.31314-0.019306-0.63253 0.18921-0.87424 0.28654-0.32564 0.78193-0.36854 1.1333-0.11718 0.045676 0.032405 0.078493 0.078498 0.13183 0.092039l0.00195 4.875e-4 4.875e-4 -0.00195c0.019373-0.071926 0.032923-0.15005 0.065428-0.21557l7.374e-4 -0.00195-0.00195-7.375e-4c-0.1439-0.058902-0.30244-0.10156-0.46484-0.12281-0.081194-0.010626-0.16341-0.015798-0.24511-0.015136zm0.11377 0.00708c0.00391 2.25e-4 0.00781 2.375e-4 0.011718 4.875e-4 -0.00391-2.5e-4 -0.00781-2.625e-4 -0.011718-4.875e-4zm4.3778 0.035399c-0.018983 8.625e-4 -0.040216 0.00415-0.059325 0.00415h-0.00195v1.9387l0.00244-7.375e-4c0.058062-0.013231 0.11024-0.00614 0.16918 2.5e-4l0.0022 2.5e-4v-1.5168c0.00909-0.00586 0.017297-0.0073 0.025145-0.00561 0.00808 0.00174 0.01583 0.00661 0.023193 0.013183 0.014726 0.013148 0.027772 0.032668 0.03955 0.044432 0.49669 0.49691 0.96664 0.9606 1.4628 1.4575 0.00392 0.0053 0.010507 0.00823 0.018066 0.00977 0.00768 0.00156 0.01639 0.00163 0.024658 0.00122 0.01654-8.375e-4 0.031249-0.00415 0.031249-0.00415l0.00146-2.5e-4 2.5e-4 -0.00147c0.032754-0.64061 0.01294-1.2872 0.01294-1.9277v-0.0022h-0.0022c-0.058321 0.00635-0.11063 0.00635-0.16943 0h-0.00244v0.0022c0 0.48301 0.00648 0.96046 0 1.4441 0 0.00254-8.874e-4 0.00367-0.00293 0.00464-0.00204 9.75e-4 -0.00507 0.00147-0.00854 0.00146-0.00348-7e-6 -0.00745-5.751e-4 -0.010742-9.751e-4 -0.00288-3.5e-4 -0.00497-6.5e-4 -0.00684-7.374e-4 -0.51624-0.48973-0.96685-0.97283-1.5022-1.45-0.010609-0.010606-0.027649-0.012089-0.046634-0.011226zm-2.5871 0.00195c-0.31357-0.00305-0.62723 0.00706-0.94065 0.0022h-0.00195v1.9318h1.2786l-7.374e-4 -0.00268c-0.012798-0.052246-0.012798-0.11023 0-0.16235l7.374e-4 -0.00293-0.00293 2.501e-4c-0.33249 0.032579-0.66491 0.032714-0.99754 0.032714-0.019051-0.27297-1.92e-5 -0.54651-0.00586-0.81932 0.30583-0.012883 0.60555-0.01294 0.91184 0.00635l0.00293 2.5e-4 -7.375e-4 -0.00268c-0.012751-0.05142 1.625e-4 -0.097445-0.00635-0.1499l-2.5e-4 -0.00195-0.00195 2.501e-4c-0.29974 0.025746-0.5996 0.00669-0.89964 0.01294-0.019033-0.23387-4.09e-5 -0.46788-0.00586-0.70164 0.031694-0.012316 0.069818-0.00684 0.10229-0.00684 0.2942 0 0.58792-0.012861 0.88133 0.03955l0.00268 4.875e-4 -4.875e-4 -0.00268c-0.00644-0.052442-0.01277-0.11109 0-0.1626l4.875e-4 -0.00244-0.00219-2.623e-4c-0.10452-0.00495-0.20894-0.00753-0.31347-0.00854zm1.1794 4.875e-4c-0.17721 0.00161-0.35327 0.00813-0.5327 0.00171h-0.0022v1.9382h0.0022c0.091053-0.00636 0.17606-0.00636 0.26757 0h0.0022v-0.0022c0-0.31364-0.01297-0.6272 0.00635-0.94065 0-0.0012 4.375e-4 -0.0019 0.00122-0.00268 7.875e-4 -7.876e-4 0.00211-0.00162 0.00391-0.0022 0.00359-0.00116 0.00886-0.00168 0.014892-0.00171 0.012072-5.81e-5 0.026747 0.00171 0.036864 0.00171h0.18212c0.28693 0.30047 0.56102 0.62039 0.82224 0.947l4.875e-4 7.374e-4h0.00122c0.11731-0.00636 0.24134-0.00636 0.35863 0l0.00171-0.00342c-0.28648-0.31276-0.56662-0.63219-0.84714-0.95822 0.20843-0.052305 0.4231-0.10479 0.56005-0.29369 0.091941-0.14423 0.11137-0.32209 0.019287-0.46654-0.078729-0.12512-0.22292-0.17057-0.36034-0.18993-0.18313-0.026312-0.36135-0.029682-0.53856-0.028076zm-0.012451 0.09863c0.087806 3.32e-5 0.17557 0.00502 0.26318 0.011718 0.098255 0 0.20193 0.019277 0.28662 0.084226 0.12998 0.10397 0.14966 0.27281 0.09741 0.41576-0.038926 0.091234-0.10999 0.15666-0.19531 0.20166-0.22052 0.11717-0.47419 0.071706-0.70872 0.078367-0.019468-0.25998-9.19e-5 -0.51385-0.0063473-0.77415 0.087518-0.012688 0.17537-0.017612 0.26318-0.017577zm-2.3776 0.034179c-0.00368 0.00967-0.00732 0.01935-0.010497 0.029297 0.00317-0.00997 0.00684-0.01962 0.010497-0.029297zm-1.4616 0.066161c-0.00729 0.00563-0.014575 0.011241-0.021728 0.01709 0.00715-0.00585 0.014433-0.011454 0.021728-0.01709zm-0.094236 0.083005c-0.00693 0.00693-0.013511 0.014303-0.020263 0.021485 0.00675-0.00719 0.013338-0.014547 0.020263-0.021485zm3.0024 0.64867c1.5e-4 0.010186 0.0011 0.020543 0.00244 0.031005-0.00132-0.010455-0.00238-0.020802-0.00244-0.031005zm-2.3578 1.5466c-0.00323 0.07828-0.00757 0.15316-0.00757 0.23144 1e-6 0.65488 0.10806 1.3076 0.31982 1.9269 0.30841 0.28236 0.6506 0.52375 1.0202 0.71898-0.46124-0.80497-0.70359-1.7185-0.70359-2.6459-1e-6 -0.078283 0.00414-0.15316 0.00781-0.23144-9e-7 1.9e-6 -0.63668 0-0.63671 0zm9.7991 3.9054c-1.0039 1.0522-2.3938 1.6462-3.848 1.6462-0.23934 3e-6 -0.48045-0.01591-0.71751-0.04809-2e-6 -3e-6 -0.53099 0.55272-0.53099 0.55272 0.41061 0.08795 0.82873 0.13355 1.2485 0.13355 1.4795 2e-6 2.9027-0.54944 3.9986-1.5437-1e-6 1e-6 -0.15063-0.7407-0.15063-0.7407zm-8.3267 0.25806c0.5763 0.65612 1.2916 1.1777 2.0919 1.5278 0 1e-6 0.47509-0.49364 0.47509-0.49364-0.45113-0.17353-0.87456-0.40754-1.2627-0.69578-0.44504-0.064003-0.88416-0.17774-1.3045-0.33837z"/></svg>
