<?xml version="1.0" encoding="UTF-8"?>
<svg width="16" height="16" version="1.1" viewBox="0 0 16 16" xmlns="http://www.w3.org/2000/svg"><path d="m7.9999 2.5e-7c-0.14091 0-0.27277 0.075309-0.34322 0.19635l-0.80312 1.3786c-0.03054 0.052559-0.046875 0.11187-0.046875 0.1724 0 0.19086 0.15609 0.34584 0.34844 0.34584h1.6896c0.19235 0 0.34844-0.15472 0.34844-0.34531 0-0.060787-0.016335-0.12089-0.046875-0.17291l-0.80312-1.3786c-0.070724-0.12131-0.20205-0.19635-0.34322-0.19635zm0 0.66927 0.52031 0.89271h-1.0406zm1.4432 0.27709 0.1974 0.33854c0.082311 0.14022 0.12604 0.29896 0.12604 0.4625 0 0.34471-0.19929 0.64381-0.48385 0.80104 1.2092 0.28422 2.2685 0.9608 3.0349 1.888 0.46805-0.11044 1.005-0.16024 1.6786-0.16979 0.07344-8.75e-4 0.13375 0.057815 0.1349 0.13125 0.0011 0.073641-0.05761 0.13427-0.13125 0.13541-0.61005 0.00865-1.09 0.050335-1.5067 0.13697 0.4438 0.5975 0.77158 1.2855 0.95104 2.0307 0.15951-0.28249 0.45735-0.48125 0.80365-0.48125 0.16538 0 0.32594 0.044195 0.46771 0.1276v5.25e-4l0.33594 0.19791c-0.58162-2.82-2.7874-5.0224-5.6084-5.5995zm-2.8875 5.25e-4c-2.8237 0.57836-5.0305 2.7851-5.6089 5.6089l0.33802-0.19687c3.375e-4 -2.125e-4 7.125e-4 -3.25e-4 0.00104-5.25e-4h5.25e-4c0.13987-0.08175 0.29796-0.12499 0.46094-0.12499 0.34545 0 0.64514 0.20001 0.80209 0.48541 0.48413-2.0624 2.1106-3.6839 4.1729-4.1672-0.28739-0.15639-0.48906-0.45734-0.48906-0.80416 0-0.16372 0.044205-0.32226 0.12448-0.46041v-5.25e-4zm1.4442 1.9865c-2.8014 0-5.0666 2.2652-5.0666 5.0666 0 1.2041 0.42015 2.3074 1.1198 3.176 0.27359-0.10023 0.52707-0.22854 0.78177-0.3974 0.46425-0.3078 0.96301-0.77417 1.5901-1.3947-0.023685-0.091334 0.0026675-0.18839 0.069271-0.25521l0.86197-0.86197h-2.0192c-0.14727 5.1e-6 -0.26667-0.11939-0.26666-0.26666-4.9e-6 -0.14727 0.11939-0.26667 0.26666-0.26666h2.0192l-0.86197-0.86197c-0.10411-0.10413-0.10411-0.27295 0-0.37709 0.046242-0.046477 0.10799-0.07429 0.17344-0.078125 0.075915-0.00418 0.15 0.024242 0.20365 0.078125l0.86197 0.86197v-2.0192c-5e-6 -0.14727 0.11939-0.26667 0.26666-0.26666 0.14727-4.9e-6 0.26667 0.11939 0.26666 0.26666v2.0192l0.86197-0.86197c0.0519-0.051971 0.12294-0.080235 0.19635-0.078125 0.020782 7.25e-4 0.041407 0.00386 0.061459 0.00937 0.63071-0.62502 1.1392-1.1003 1.6312-1.4265 0.24158-0.16016 0.48594-0.28519 0.74427-0.38697-0.92689-1.0287-2.266-1.6786-3.762-1.6786zm3.9469 1.8906c-0.27359 0.10023-0.52707 0.22854-0.78177 0.3974-0.46425 0.3078-0.96301 0.77417-1.5901 1.3947 0.023685 0.091334-0.00267 0.18839-0.069271 0.25521l-0.86197 0.86197h2.0192c0.14728-5e-6 0.26668 0.11939 0.26666 0.26666 5e-6 0.14727-0.11939 0.26667-0.26666 0.26666h-2.0192l0.86197 0.86197c0.10411 0.10413 0.10411 0.27295 0 0.37709-0.10413 0.10411-0.27295 0.10411-0.37709 0l-0.86197-0.86197v2.0192c5.1e-6 0.14728-0.11939 0.26668-0.26666 0.26666-0.14727 5e-6 -0.26667-0.11939-0.26666-0.26666v-2.0192l-0.86197 0.86197c-0.06747 0.067354-0.16576 0.093565-0.25781 0.06875-0.63071 0.62502-1.1392 1.1003-1.6312 1.4265-0.24157 0.16016-0.48594 0.28519-0.74427 0.38698 0.92689 1.0287 2.266 1.6786 3.762 1.6786 2.8014 0 5.0666-2.2652 5.0666-5.0666 0-1.2041-0.42015-2.3074-1.1198-3.176zm-10.199 1.9827c-0.060787 0-0.12089 0.016335-0.17291 0.046875l-1.3786 0.80312c-0.12131 0.070724-0.19635 0.20205-0.19635 0.34322 0 0.14091 0.075309 0.27277 0.19635 0.34322l1.3786 0.80312c0.052559 0.03054 0.11187 0.046875 0.1724 0.046875 0.19086 0 0.34584-0.15609 0.34584-0.34844v-1.6896c0-0.19235-0.15472-0.34844-0.34531-0.34844zm12.5 0c-0.18816 0-0.34115 0.15609-0.34115 0.34844v1.6896c0 0.19235 0.15299 0.34844 0.34115 0.34844 0.05975 0 0.11842-0.016335 0.17031-0.046875l1.4021-0.82709c0.11059-0.065901 0.17969-0.188 0.17969-0.31927 0-0.13126-0.06936-0.25364-0.18021-0.31927l-1.4021-0.8276c-0.05189-0.03054-0.11057-0.046354-0.16979-0.046354zm-12.686 0.67291v1.0406l-0.89271-0.52031zm12.869 0 0.88178 0.52031-0.88178 0.52031zm-11.879 1.7979c-0.15642 0.28744-0.45742 0.48906-0.80416 0.48906-0.16372 0-0.32226-0.044205-0.46041-0.12448l-5.25e-4 -5.25e-4 -0.3401-0.19791c0.57815 2.8245 2.7854 5.0317 5.6099 5.6099l-0.1974-0.33854c-2.125e-4 -2.5e-4 -3.25e-4 -6.25e-4 -5.25e-4 -0.0011v-5e-4c-0.081751-0.13986-0.12499-0.29848-0.12499-0.46145 0-0.34459 0.19909-0.64339 0.48334-0.80052-1.209-0.28431-2.268-0.96095-3.0344-1.888-0.46805 0.11044-1.0049 0.16024-1.6786 0.16979-0.073842 0.00115-0.13456-0.057925-0.13541-0.13178-8.625e-4 -0.07364 0.05813-0.13404 0.13177-0.1349 0.61005-0.00865 1.09-0.050335 1.5067-0.13698-0.44797-0.6031-0.77691-1.2987-0.9552-2.052zm10.894 0.023957c-0.48999 2.0526-2.1127 3.6651-4.1682 4.1469 0.28744 0.15642 0.48906 0.45742 0.48906 0.80416 0 0.16372-0.044205 0.32226-0.12448 0.46041l-5.25e-4 5e-4 -0.19791 0.3401c2.8209-0.57742 5.0265-2.78 5.6077-5.6l-0.33541 0.19791-5e-4 5.25e-4c-0.13972 0.082229-0.30098 0.1276-0.46771 0.1276-0.34506 0-0.64212-0.19727-0.80209-0.47812zm-6.2906 4.6052c-0.19235 0-0.34844 0.15472-0.34844 0.34531 0 0.06079 0.016335 0.12089 0.046875 0.17291l0.80312 1.3786c0.070724 0.12131 0.20205 0.19635 0.34322 0.19635 0.14091 0 0.27277-0.07531 0.34322-0.19635l0.80312-1.3786c0.03054-0.05256 0.046875-0.11187 0.046875-0.1724 0-0.19086-0.15609-0.34584-0.34844-0.34584zm0.32447 0.53125h1.0406l-0.52031 0.89271z"/></svg>
