<?xml version="1.0" encoding="UTF-8"?>
<svg width="16" height="16" version="1.1" viewBox="0 0 16 16" xmlns="http://www.w3.org/2000/svg"><path d="m3.6904 0.25032c-0.041824 0.001603-0.068187 0.016392-0.090332 0.042716-0.02504 0.029764-0.045411 0.081713-0.045411 0.11544 0 0.060567 0.058889 0.14045 1.7593 2.3836 0.2056 0.27124 0.60113 0.79441 0.87892 1.1625 0.27777 0.36811 0.52403 0.6876 0.54737 0.71019 0.058762 0.056957 0.13643 0.051427 0.19555-0.014057 0.044659-0.049451 0.048822-0.070978 0.039793-0.20547-0.037721-0.56204-0.19854-1.1976-0.43579-1.7222-0.21938-0.48506-0.48407-0.88132-0.8569-1.2825-0.4725-0.50841-0.98068-0.85197-1.6004-1.0817-0.20938-0.077622-0.32238-0.11136-0.39209-0.10869zm-3.5334 2.316c-0.045153-0.00391-0.059282 0.024283-0.091062 0.059478-0.099953 0.11068-0.093737 0.1551 0.070555 0.51611 0.082894 0.18214 0.21615 0.44213 0.29614 0.57773 0.88847 1.5064 2.3225 2.4804 3.9597 2.6897 0.28888 0.03695 1.052 0.028747 1.1816-0.012707 0.043393-0.013879 0.093487-0.048304 0.11133-0.076507 0.043332-0.068513 0.041122-0.18848-0.00463-0.24926-0.020409-0.027116-0.209-0.15867-0.41894-0.29226-0.20995-0.13357-0.53925-0.34348-0.73172-0.46662-0.19245-0.12315-0.68872-0.44013-1.1028-0.70455-0.41406-0.26441-0.93883-0.60059-1.1663-0.74671-0.22744-0.14615-0.6044-0.38745-0.83764-0.5364-0.91747-0.58574-1.167-0.74948-1.2664-0.75807zm9.6316 2.0514c-0.17019-0.00134-0.34161 0.00323-0.35792 0.01514-0.025734 0.018788-0.026575 0.067969-0.00439 0.33524 0.014297 0.17224 0.029991 0.33428 0.034668 0.36011 0.00807 0.044354 0.025626 0.047041 0.31397 0.047041h0.30518l0.03589-0.36092c0.01969-0.19855 0.02973-0.36769 0.02245-0.37579-0.0109-0.012125-0.17967-0.019492-0.34986-0.020817zm-1.1353 0.18519c-0.022994-0.028367-0.66964 0.29318-0.67309 0.33469-9.001e-4 0.010885 0.069397 0.16113 0.15625 0.33389 0.086854 0.17274 0.16037 0.31423 0.16358 0.31442 0.00321 1.938e-4 0.069997-0.035418 0.14844-0.078945 0.078439-0.043526 0.20225-0.10297 0.27514-0.13221 0.072897-0.029244 0.13256-0.058564 0.13256-0.065156 0-0.01819-0.19478-0.6967-0.20288-0.70668zm2.2567 0.027035c-0.0073 7.89e-4 -0.01266 0.00301-0.01562 0.00648-0.0182 0.021376-0.1819 0.56428-0.19654 0.65181-0.0055 0.033184 0.02534 0.056523 0.14136 0.10734 0.08165 0.035753 0.20565 0.097632 0.27564 0.13734 0.06998 0.039718 0.12816 0.070607 0.12939 0.06867 0.0425-0.068774 0.32666-0.62894 0.32666-0.64396-0.20832-0.13248-0.42572-0.27567-0.6609-0.32767zm-3.5633 0.79133-0.066894 0.06029c-0.090132 0.081258-0.43692 0.50957-0.43652 0.53908 1.749e-4 0.012918 0.11666 0.12066 0.25903 0.23927 0.14238 0.11859 0.26444 0.2162 0.27124 0.21709 0.00679 8.859e-4 0.044759-0.042942 0.084227-0.097332 0.039468-0.054388 0.13058-0.16792 0.20264-0.25251l0.1311-0.15383-0.22242-0.27603zm2.4028 0.33983c-0.6524 5.814e-4 -1.2804 0.29111-1.7449 0.82942-0.17397 0.20164-0.23644 0.29588-0.39404 0.59258-0.11646 0.21925-1.5619 2.991-2.6453 5.0724-0.10953 0.21043-1.3476 2.5875-1.4465 2.777-0.00505 0.0097 1.2549 0.01757 2.7998 0.01757h2.8089c0.78359-1.3735 1.3484-2.7323 2.0603-3.9326 0.01013-0.0069 0.16339 0.07976 0.34058 0.19275l0.32202 0.20547 0.05175 0.13598c0.35159 0.92512 1.2728 1.5202 2.1794 1.408 0.29323-0.03629 0.62925-0.15837 0.8723-0.31659 0.2538-0.1652 0.59268-0.53682 0.73928-0.81079 0.39298-0.73457 0.40966-1.6356 0.0437-2.3728-0.15402-0.3103-0.44688-0.65793-0.70946-0.84271-0.07581-0.053344-0.6961-0.45344-1.3784-0.88917-0.68234-0.43576-1.5794-1.0089-1.9934-1.2739-0.8502-0.54393-0.96835-0.60969-1.2508-0.69507-0.21775-0.06584-0.43781-0.097791-0.65527-0.097594zm-3.2886 0.97004c-0.011386-0.0033-0.096568 0.1394-0.1892 0.31712l-0.16845 0.32334 0.15185 0.096788c0.083465 0.053367 0.21374 0.13787 0.28955 0.18762 0.075812 0.049753 0.1426 0.090366 0.14844 0.090299 0.019375-2.217e-4 0.33926-0.63826 0.32911-0.6564-0.010624-0.019033-0.52635-0.34869-0.56126-0.35877zm4.9167 0.25196c0.0562-0.00287 0.11311 7.889e-4 0.16993 0.011624 0.33612 0.063994 0.59508 0.30228 0.70167 0.64532l0.03955 0.12733-0.08862-0.10193c-0.0576-0.066327-0.11931-0.11134-0.177-0.12842-0.17332-0.051306-0.36119 0.043642-0.43311 0.21898-0.10727 0.26155 0.03395 0.54613 0.29346 0.59155 0.13408 0.023456 0.30419-0.073797 0.36426-0.20817 0.05279-0.1181 0.05718-0.074122 0.01024 0.10084-0.06964 0.25966-0.23382 0.46943-0.46924 0.59909-0.10559 0.058163-0.15154 0.068372-0.33448 0.074888-0.30617 0.010885-0.47996-0.066009-0.67701-0.29929-0.18664-0.22096-0.27047-0.52504-0.22485-0.81509 0.07162-0.45541 0.43178-0.79652 0.82521-0.8167zm1.6268 0.6256c0.0075-0.00958 0.11486 0.057485 1.1963 0.74807 0.83098 0.53065 0.856 0.54869 1.0467 0.75048 0.62268 0.6594 0.79162 1.6749 0.42309 2.5446l-0.07983 0.1879-0.39283-0.01379c-0.42151-0.01479-0.84378-0.05989-1.28-0.13679-0.1497-0.02639-0.27705-0.04249-0.2832-0.03569-0.01148 0.01272-0.06801 0.28661-0.06934 0.33605-3.75e-4 0.01512 0.02554 0.03379 0.05762 0.04136 0.17107 0.04037 0.7978 0.13031 1.0657 0.15303 0.16913 0.01434 0.37761 0.03217 0.46338 0.03948l0.156 0.01325-0.07128 0.08192c-0.17289 0.19914-0.5683 0.4413-0.87988 0.5388-0.17017 0.05326-0.7321 0.06592-0.91209 0.02054-0.40078-0.10102-0.79191-0.35169-1.0608-0.67964-0.13799-0.16832-0.30617-0.46198-0.37207-0.65019l-0.04711-0.13464-0.33984-0.21709c-0.18701-0.1195-0.34468-0.22152-0.35035-0.22656-0.0057-0.0049 0.0093-0.04789 0.03321-0.09543 0.06912-0.13757 0.70999-1.3749 1.0117-1.9533 0.1516-0.29061 0.36613-0.70283 0.4768-0.91595 0.11067-0.21311 0.20443-0.39147 0.20825-0.39635zm-7.2406 0.41689-0.089598 0.17168c-0.049308 0.094444-0.12853 0.24495-0.17603 0.33442-0.047494 0.089466-0.07698 0.16665-0.065672 0.1714 0.0113 0.00478 0.13985 0.086279 0.28564 0.18114 0.14579 0.094857 0.2719 0.17351 0.28027 0.17492 0.013333 0.00225 0.091425-0.1383 0.30078-0.54126l0.057127-0.10976-0.23974-0.15005c-0.13175-0.082597-0.265-0.1688-0.29614-0.19141zm-0.66114 1.3482c-0.026986-0.00778-0.0756 0.064913-0.19922 0.2982-0.089933 0.16972-0.16062 0.31831-0.15698 0.3301s0.13084 0.10053 0.28248 0.19736c0.15163 0.09683 0.28165 0.17645 0.28907 0.1768 0.013261 6.78e-4 0.33643-0.61587 0.33643-0.64183 0-0.01717-0.50457-0.34698-0.55177-0.36064zm10.081 0.84136c-0.2071 0-0.37501 0.18592-0.37501 0.41527s0.1679 0.41527 0.37501 0.41527 0.37501-0.18592 0.37501-0.41527-0.1679-0.41527-0.37501-0.41527zm-10.792 0.46771c-0.026902 0.0012-0.35558 0.64256-0.33398 0.65181 0.00911 0.0039 0.13594 0.08492 0.28174 0.18005 0.14579 0.09514 0.27447 0.17366 0.28613 0.17466 0.016523 0.0015 0.31796-0.54895 0.34546-0.63072 0.00657-0.01954-0.54477-0.37714-0.57936-0.37579zm-0.68334 1.3145c-0.023443 0-0.35157 0.63397-0.33667 0.65044 0.00672 0.0075 0.13418 0.09107 0.2832 0.18574 0.14903 0.09465 0.28007 0.1689 0.29125 0.16517 0.017563-0.0059 0.35444-0.63198 0.34399-0.63935-0.08425-0.05967-0.57015-0.362-0.58177-0.362zm-0.70091 1.3261c-0.00807 0.0088-0.087619 0.1551-0.17677 0.32497l-0.16212 0.30902 0.21509 0.13815c0.1183 0.07599 0.24382 0.15783 0.2788 0.18194 0.034991 0.02413 0.074272 0.04416 0.087402 0.04433 0.013127 2.78e-4 0.098177-0.14346 0.18897-0.31901 0.13283-0.25688 0.1593-0.32344 0.13525-0.34092-0.15205-0.11044-0.55517-0.35118-0.56665-0.33849z"/></svg>
