<?xml version="1.0" encoding="UTF-8"?>
<svg width="16" height="16" version="1.1" viewBox="0 0 16 16" xmlns="http://www.w3.org/2000/svg"><defs><style>.a{fill:#8f0000;}.b{fill:#fff;}</style></defs><title>node-red</title><path d="m1.991-3.3077e-5a2 2 0 0 0-1.991 1.9999v4.0756h1.905a1.3021 1.3021 0 0 1 1.3097 1.3021v0.019586c0.54036-0.065108 0.87503-0.23438 1.1159-0.45573 0.27734-0.2539 0.46109-0.60545 0.67723-0.99868s0.47382-0.82946 0.93866-1.1485c0.38411-0.26302 0.90354-0.42965 1.5884-0.457v-0.30085a1.3138 1.3138 0 0 1 1.3191-1.3163h5.2579a1.3151 1.3151 0 0 1 1.3163 1.3163v1.2891a1.3463 1.3463 0 0 1-1.3125 1.3527h-5.2617a1.3463 1.3463 0 0 1-1.3191-1.3527v-0.29831c-0.5677 0.024739-0.93739 0.15756-1.1978 0.33595-0.32031 0.22005-0.51569 0.53776-0.72402 0.91145-0.20833 0.3737-0.42445 0.80989-0.81507 1.1719l-0.050608 0.045522c2.0469 0.27734 2.9765 1.0379 3.7669 1.7293 0.92708 0.80468 1.651 1.5169 4.1992 1.5299v-0.30594a1.3021 1.3021 0 0 1 1.3242-1.3021h1.9623v-7.1434a2 2 0 0 0-2.0002-1.9999h-12a2 2 0 0 0-0.0089 0zm6.8461 3.6064a0.4375 0.4375 0 0 0-0.43996 0.43004v1.2891a0.4375 0.4375 0 0 0 0.457 0.42445h5.2579a0.40885 0.40885 0 0 0 0.42317-0.42445v-1.2891a0.40885 0.40885 0 0 0-0.41936-0.42979h-5.2617a0.4375 0.4375 0 0 0-0.017039-2.543e-4zm-6.9122 3.3617a0.43229 0.43229 0 0 0-0.019836 5.086e-4h-1.905v2.1784h1.905a0.46484 0.46484 0 0 0 0.45166-0.46081v-1.2944a0.43229 0.43229 0 0 0-0.43182-0.42368zm1.2899 1.1047v0.60933a1.3112 1.3112 0 0 1-1.3097 1.3178h-1.905v3.9998a2 2 0 0 0 1.9999 2.0002h12a2 2 0 0 0 2.0002-2.0002v-0.93612h-1.9623a1.3411 1.3411 0 0 1-1.3242-1.3372v-0.29704c-2.7005-0.01823-3.7318-0.88541-4.6536-1.6927-0.95833-0.83854-1.8347-1.621-4.8451-1.664zm10.812 1.9272a0.42968 0.42968 0 0 0-0.42038 0.43996v1.2942a0.40364 0.40364 0 0 0 0.43106 0.40893h1.9623v-2.1431h-1.9623a0.42968 0.42968 0 0 0-0.01068 0z"/></svg>
