<?xml version="1.0" encoding="UTF-8"?>
<svg width="16" height="16" version="1.1" viewBox="0 0 16 16" xmlns="http://www.w3.org/2000/svg"><path d="m13.333 8.6667v-1.3333c0-0.36458-0.30208-0.66667-0.66667-0.66667h-5.2292l1.9688-1.9688c0.125-0.125 0.19792-0.29167 0.19792-0.46875 0-0.17708-0.072917-0.34375-0.19792-0.46875l-0.94792-0.94792c-0.125-0.125-0.29167-0.1875-0.46875-0.1875-0.17708 0-0.34375 0.0625-0.46875 0.1875l-4.7188 4.7188c-0.125 0.125-0.1875 0.29167-0.1875 0.46875s0.0625 0.34375 0.1875 0.46875l4.7188 4.7188c0.125 0.125 0.29167 0.1875 0.46875 0.1875 0.17708 0 0.34375-0.0625 0.46875-0.1875l0.94792-0.94792c0.125-0.125 0.1875-0.29167 0.1875-0.46875 0-0.17708-0.0625-0.34375-0.1875-0.46875l-1.9688-1.9688h5.2292c0.36458 0 0.66667-0.30208 0.66667-0.66667zm2.6667-0.66667c0 4.4167-3.5833 8-8 8-4.4167 0-8-3.5833-8-8s3.5833-8 8-8c4.4167 0 8 3.5833 8 8z"/></svg>
