<?xml version="1.0" encoding="UTF-8"?>
<svg width="16" height="16" viewBox="0 0 16 16" version="1.1" xmlns="http://www.w3.org/2000/svg"><path d="m8 0c4.4167 0 8 3.5833 8 8s-3.5833 8-8 8c-4.4167 0-8-3.5833-8-8s3.5833-8 8-8zm2.8542 5.4271c-0.08333 0.0625-0.13542 0.17708-0.23958 0.19792 0.05208-0.01042 0.10417-0.19792 0.13542-0.23958 0.0625-0.07292 0.14583-0.11458 0.22917-0.15625 0.17708-0.07292 0.35417-0.09375 0.54167-0.125 0.17708-0.04167 0.39583-0.04167 0.53125 0.11458-0.03125-0.03125 0.21875-0.25 0.25-0.26042 0.09375-0.05208 0.25-0.03125 0.3125-0.125 0.02083-0.03125 0.02083-0.22917 0.02083-0.22917-0.17708 0.02083-0.23958-0.14583-0.25-0.29167 0 0.01042-0.02083 0.04167-0.0625 0.08333 0.01042-0.15625-0.1875-0.04167-0.26042-0.0625-0.23958-0.0625-0.20833-0.22917-0.28125-0.40625-0.04167-0.09375-0.15625-0.125-0.19792-0.21875-0.04167-0.0625-0.0625-0.19792-0.15625-0.20833-0.0625-0.01042-0.17708 0.21875-0.19792 0.20833-0.09375-0.05208-0.13542 0.02083-0.20833 0.0625-0.0625 0.04167-0.11458 0.02083-0.17708 0.05208 0.1875-0.0625-0.08333-0.16667-0.17708-0.14583 0.14583-0.04167 0.07292-0.19792-0.01042-0.27083h0.05208c-0.020823-0.093743-0.31249-0.17708-0.40624-0.23958s-0.59375-0.16667-0.69792-0.10417c-0.125 0.07292 0.03125 0.28125 0.03125 0.38542 0.010417 0.125-0.125 0.15625-0.125 0.26042 0 0.17708 0.33333 0.14583 0.25 0.38542-0.052083 0.14583-0.25 0.17708-0.33333 0.29167-0.083333 0.10417 0.010417 0.29167 0.09375 0.36458 0.083333 0.0625-0.14583 0.16667-0.17708 0.1875-0.17708 0.08333-0.3125-0.17708-0.35417-0.33333-0.03125-0.11458-0.041667-0.25-0.16667-0.3125-0.0625-0.02083-0.26042-0.05208-0.30208 0.01042-0.0625-0.15625-0.28125-0.21875-0.42708-0.27083-0.20833-0.07292-0.38542-0.07292-0.60417-0.04167 0.072917-0.01042-0.020833-0.33333-0.19792-0.28125 0.052083-0.10417 0.03125-0.21875 0.052083-0.32292 0.020833-0.08333 0.0625-0.16667 0.125-0.23958 0.020833-0.04167 0.25-0.28125 0.17708-0.29167 0.17708 0.02083 0.375 0.03125 0.52083-0.11458 0.09375-0.09375 0.13542-0.25 0.22917-0.35417 0.13542-0.15625 0.30208 0.04167 0.44792 0.05208 0.20833 0.01042 0.19792-0.21875 0.083333-0.32292 0.13542 0.010419 0.020834-0.23958-0.052083-0.27083-0.09375-0.03125-0.44792 0.0625-0.26042 0.13542-0.041667-0.02083-0.29167 0.5-0.4375 0.23958-0.041667-0.05208-0.0625-0.27083-0.15625-0.28125-0.083333 0-0.13542 0.09375-0.16667 0.15625 0.052083-0.13542-0.29167-0.22917-0.36458-0.23958 0.15625-0.10417 0.03125-0.21875-0.083333-0.28125-0.083333-0.052084-0.34375-0.09375-0.41667-0.010417-0.19792 0.23958 0.20833 0.27083 0.3125 0.33333 0.03125 0.02083 0.15625 0.09375 0.083333 0.14583-0.0625 0.03125-0.25 0.08333-0.27083 0.125-0.0625 0.09375 0.072917 0.19792-0.020833 0.29167-0.09375-0.09375-0.09375-0.25-0.16667-0.35417 0.09375 0.11458-0.375 0.05208-0.36458 0.05208-0.15625 0-0.40625 0.10417-0.52083-0.05208-0.020833-0.04167-0.020833-0.28125 0.041667-0.22917-0.09375-0.07292-0.15625-0.14583-0.21875-0.1875-0.34375 0.11458-0.66667 0.26042-0.97917 0.42708 0.041667 0.01042 0.072917 0.01042 0.125-0.01042 0.083333-0.03125 0.15625-0.08333 0.23958-0.125 0.10417-0.04167 0.32292-0.16667 0.4375-0.07292 0.010417-0.02083 0.041667-0.04167 0.052083-0.05208 0.072917 0.08333 0.14583 0.16667 0.20833 0.26042-0.083333-0.04167-0.21875-0.02083-0.3125-0.01042-0.072917 0.020841-0.19792 0.041674-0.22917 0.12501 0.03125 0.05208 0.072917 0.13542 0.052083 0.1875-0.13542-0.09375-0.23958-0.25-0.42708-0.27083-0.083333 0-0.16667 0-0.22917 0.01042-1 0.55208-1.8438 1.3542-2.4479 2.3125 0.041667 0.04167 0.083333 0.07292 0.125 0.08333 0.10417 0.03125 0 0.33333 0.19792 0.17708 0.0625 0.05208 0.072917 0.125 0.03125 0.19792 0.010417-0.01042 0.42708 0.26042 0.45833 0.28125 0.072917 0.0625 0.1875 0.13542 0.21875 0.21875 0.020834 0.072917-0.041666 0.15625-0.10417 0.1875-0.010417-0.020833-0.16667-0.17708-0.1875-0.13542-0.03125 0.05208 0 0.33333 0.11458 0.32292-0.16667 0.01042-0.09375 0.65625-0.13542 0.78125 0 0.01042 0.020833 0.01042 0.020833 0.01042-0.03125 0.125 0.072917 0.61458 0.28125 0.5625-0.13542 0.03125 0.23958 0.51042 0.29167 0.54167 0.13542 0.09375 0.29167 0.15625 0.38542 0.29167 0.10417 0.14583 0.10417 0.36458 0.25 0.47917-0.041667 0.125 0.21875 0.27083 0.20833 0.44792-0.020833 0.01042-0.03125 0.01042-0.052083 0.02083 0.052083 0.14583 0.25 0.14583 0.32292 0.28125 0.041667 0.08333 0 0.28125 0.13542 0.23958 0.020833-0.22917-0.13542-0.45833-0.25-0.64583-0.0625-0.10417-0.125-0.19792-0.17708-0.30208-0.052083-0.09375-0.0625-0.20833-0.10417-0.3125 0.041667 0.01042 0.27083 0.09375 0.25 0.125-0.083333 0.20833 0.33333 0.57292 0.44792 0.70833 0.03125 0.03125 0.27083 0.34375 0.14583 0.34375 0.13542 0 0.32292 0.20833 0.38542 0.3125 0.09375 0.15625 0.072917 0.35417 0.13542 0.52083 0.0625 0.20833 0.35417 0.30208 0.52083 0.39583 0.14583 0.07292 0.27083 0.17708 0.41667 0.22917 0.21875 0.08333 0.27083 0.01042 0.45833-0.02083 0.27083-0.04167 0.30208 0.26042 0.52083 0.375 0.13542 0.07292 0.42708 0.17708 0.57292 0.11458-0.0625 0.02083 0.21875 0.44792 0.23958 0.47917 0.09375 0.125 0.27083 0.1875 0.375 0.3125 0.03125-0.02083 0.0625-0.05208 0.072917-0.09375-0.041667 0.11458 0.15625 0.33333 0.26042 0.3125 0.11458-0.02083 0.14583-0.25 0.14583-0.33333-0.20833 0.10416-0.39583 0.02083-0.51042-0.1875-0.020833-0.05208-0.1875-0.34375-0.041667-0.34375 0.19792 0 0.0625-0.15625 0.041667-0.30208-0.020833-0.14583-0.16667-0.23958-0.23958-0.36458-0.0625 0.125-0.27083 0.09375-0.33333-0.010417 0 0.03125-0.03125 0.08333-0.03125 0.125-0.052083 0-0.10417 0.01042-0.15625-0.01042 0.020833-0.125 0.03125-0.28125 0.0625-0.41667 0.052083-0.1875 0.39583-0.55208-0.052083-0.53125-0.15625 0.01042-0.21875 0.07292-0.27083 0.20833-0.052083 0.125-0.03125 0.23958-0.17708 0.30208-0.09375 0.04167-0.40625 0.02083-0.5-0.03125-0.19792-0.11458-0.33333-0.47917-0.33333-0.6875-0.010417-0.28125 0.13542-0.53125 0-0.79167 0.0625-0.05208 0.125-0.15625 0.19792-0.20833 0.0625-0.04167 0.13542 0.03125 0.16667-0.09375-0.03125-0.02083-0.072917-0.0625-0.083333-0.0625 0.15625 0.07292 0.44792-0.10417 0.58333 0 0.083333 0.0625 0.17708 0.08333 0.22917-0.02083 0.010416-0.03125-0.072917-0.15625-0.031251-0.23958 0.03125 0.17708 0.14583 0.20833 0.30208 0.09375 0.0625 0.0625 0.22917 0.04167 0.34375 0.10417 0.11458 0.07292 0.13542 0.1875 0.27083 0.03125 0.083333 0.125 0.09375 0.125 0.125 0.25 0.03125 0.11458 0.09375 0.40625 0.19792 0.45833 0.21875 0.13542 0.16667-0.22917 0.14583-0.35417-0.010417-0.01042-0.010417-0.35417-0.020833-0.35417-0.33333-0.07292-0.20833-0.33333-0.020833-0.51042 0.03125-0.02083 0.27083-0.10417 0.375-0.1875 0.09375-0.08333 0.20833-0.22917 0.15625-0.36458 0.052083 0 0.09375-0.04167 0.11458-0.09375-0.031251-0.010417-0.15625-0.11458-0.17708-0.10417 0.072917-0.04167 0.0625-0.10417 0.020833-0.16667 0.10417-0.0625 0.052083-0.17708 0.15625-0.21875 0.11458 0.15625 0.34375-0.02083 0.22917-0.14583 0.10417-0.14583 0.34375-0.07292 0.40625-0.20833 0.15625 0.04167 0.04167-0.15625 0.125-0.27083 0.07292-0.09375 0.19792-0.09375 0.29167-0.14583 0 0.01042 0.26042-0.14583 0.17708-0.15625 0.17708 0.02083 0.53125-0.16667 0.26042-0.32292 0.04167-0.09375-0.09375-0.13542-0.1875-0.15625 0.07292-0.02083 0.16667 0.02083 0.22917-0.02083 0.13542-0.09375 0.04167-0.13542-0.07292-0.16667-0.14583-0.04167-0.33333 0.05208-0.44792 0.125zm-1.6979 9.1354c1.4271-0.25 2.6979-0.95833 3.6562-1.9688-0.0625-0.0625-0.17708-0.04167-0.26042-0.08333-0.08333-0.03125-0.14583-0.0625-0.25-0.08333 0.02083-0.20833-0.20833-0.28125-0.35417-0.38542-0.13542-0.10417-0.21875-0.21875-0.41667-0.17708-0.02083 0.01042-0.22917 0.08333-0.1875 0.125-0.13542-0.11459-0.19792-0.17709-0.375-0.22917-0.16667-0.052084-0.28125-0.26042-0.44792-0.072917-0.08333 0.08333-0.04167 0.20833-0.08333 0.29167-0.13542-0.11458 0.125-0.25 0.02083-0.375-0.125-0.14583-0.34375 0.09375-0.44792 0.15625-0.0625 0.052083-0.13542 0.072916-0.17708 0.13542-0.052083 0.072917-0.072917 0.16667-0.11458 0.23958-0.03125-0.083334-0.20833-0.0625-0.21875-0.125 0.041667 0.25 0.041667 0.51042 0.09375 0.76042 0.03125 0.14583 0 0.38542-0.125 0.5-0.125 0.11458-0.28125 0.23958-0.30208 0.41667-0.020833 0.125 0.010417 0.23958 0.125 0.27083 0.010417 0.15625-0.16667 0.27083-0.15625 0.4375 0 0.01042 0.010417 0.11458 0.020833 0.16667z"/></svg>
