<?xml version="1.0" encoding="UTF-8"?>
<svg width="16" height="16" version="1.1" viewBox="0 0 16 16" xmlns="http://www.w3.org/2000/svg"><path d="m6.2363 0.43164c-3.1183 1e-8 -6.2363 3.1201-6.2363 6.2383 0 2.063 1.4255 3.498 3.498 3.498 1.2549 0 2.4725-0.50456 3.4707-1.2461l6.3789 6.3789c0.17112 0.17112 0.40882 0.26758 0.64648 0.26758 0.53236 0 1.1406-0.6102 1.1406-1.1426 0-0.23767-0.09451-0.47536-0.26562-0.64648l-2.0918-2.0898 0.91211-0.91406c0.1997 0.19966 0.96962 1.0938 1.2168 1.0938 0.21867 0 1.0938-0.87509 1.0938-1.0938 0-0.2757-2.6522-2.7752-3.0039-3.127-0.05704-0.05704-0.1427-0.095703-0.21875-0.095703-0.21867 0-1.0938 0.87509-1.0938 1.0938 0 0.2472 0.89411 1.0172 1.0938 1.2168l-0.91211 0.91211-3.375-3.375c0.74154-0.9982 1.2441-2.2138 1.2441-3.4688 0-2.0725-1.435-3.5-3.498-3.5zm-0.15234 1.8262c1.0077 0 1.8262 0.81847 1.8262 1.8262 1e-7 1.0077-0.81847 1.8242-1.8262 1.8242-0.2757 0-0.54188-0.065607-0.78906-0.17969 0.11408 0.24718 0.18164 0.51336 0.18164 0.78906 0 1.0077-0.81846 1.8242-1.8262 1.8242s-1.8242-0.81651-1.8242-1.8242 0.81652-1.8262 1.8242-1.8262c0.2757 0 0.54188 0.067561 0.78906 0.18164-0.11408-0.24718-0.17969-0.51336-0.17969-0.78906 0-1.0077 0.81651-1.8262 1.8242-1.8262z"/></svg>
