<?xml version="1.0" encoding="UTF-8"?>
<svg width="16" height="16" version="1.1" viewBox="0 0 16 16" xmlns="http://www.w3.org/2000/svg"><path d="m11.429 6.8571c0-0.3125-0.25893-0.57143-0.57143-0.57143-3.1607 0-5.1964 1.3214-7.2589 3.5982-0.10714 0.11607-0.16964 0.24107-0.16964 0.40179 0 0.3125 0.25893 0.57143 0.57143 0.57143 0.16071 0 0.28571-0.0625 0.40179-0.16964 0.4375-0.39286 0.83036-0.82143 1.2589-1.2232 1.6161-1.4554 3-2.0357 5.1964-2.0357 0.3125 0 0.57143-0.25893 0.57143-0.57143zm4.5714-1.7679c0 0.57143-0.0625 1.1518-0.17857 1.7232-0.57143 2.7768-2.3571 4.5804-4.8393 5.8125-1.2054 0.60714-2.5536 0.96429-3.9107 0.96429-0.85714 0-1.7411-0.14286-2.5536-0.41964-0.42857-0.14286-1.2857-0.70536-1.6429-0.70536-0.44643 0-0.98214 1.8214-1.7589 1.8214-0.5625 0-0.73214-0.27679-0.97321-0.6875-0.080357-0.15179-0.14286-0.20536-0.14286-0.39286 0-0.92857 1.7679-1.6518 1.7679-2.1696 0-0.08036-0.23214-0.55357-0.26786-0.73214-0.053571-0.30357-0.080357-0.61607-0.080357-0.92857 0-2.8393 2.2589-4.8661 4.7946-5.7054 1.8304-0.60714 5.7232 0.098214 6.9643-1.0804 0.49107-0.45536 0.73214-0.875 1.4821-0.875 1.0089 0 1.3393 2.6161 1.3393 3.375z"/></svg>
