<?xml version="1.0" encoding="UTF-8"?>
<svg width="16" height="16" version="1.1" viewBox="0 0 16 16" xmlns="http://www.w3.org/2000/svg"><path d="m14.787 13.391c0.73242 1.1621 0.21485 2.1094-1.1621 2.1094h-11.25c-1.377 0-1.8945-0.94725-1.1621-2.1094l4.9121-7.7442v-3.8965h-0.62501c-0.3418 0-0.62501-0.2832-0.62501-0.62501 0-0.3418 0.2832-0.62501 0.62501-0.62501h5c0.3418 0 0.62501 0.2832 0.62501 0.62501 0 0.3418-0.2832 0.62501-0.62501 0.62501h-0.62501v3.8965zm-7.6075-7.0801-2.6562 4.1895h6.9532l-2.6562-4.1895-0.19531-0.30274v-4.2579h-1.25v4.2579z"/></svg>
