<?xml version="1.0" encoding="UTF-8"?>
<svg width="16" height="16" viewBox="0 0 16 16" version="1.1" xmlns="http://www.w3.org/2000/svg"><path d="m15.24 13.75c0.78125 1.2396 0.22917 2.25-1.2396 2.25h-12c-1.4688 0-2.0208-1.0104-1.2396-2.25l5.2396-8.2604v-4.1562h-0.66667c-0.36458 0-0.66667-0.30208-0.66667-0.66667 0-0.36458 0.30208-0.66667 0.66667-0.66667h5.3333c0.36458 0 0.66667 0.30208 0.66667 0.66667 0 0.36458-0.30208 0.66667-0.66667 0.66667h-0.66667v4.1562zm-8.1146-7.5521-2.8333 4.4688h7.4167l-2.8333-4.4688-0.20833-0.32292v-4.5417h-1.3333v4.5417z"/></svg>
