<?xml version="1.0" encoding="UTF-8"?>
<svg width="16" height="16" version="1.1" viewBox="0 0 16 16" xmlns="http://www.w3.org/2000/svg"><path d="m10.667 8c0-1.4688-1.1979-2.6667-2.6667-2.6667s-2.6667 1.1979-2.6667 2.6667 1.1979 2.6667 2.6667 2.6667 2.6667-1.1979 2.6667-2.6667zm5.3333-1.1354v2.3125c0 0.15625-0.125 0.34375-0.29167 0.375l-1.9271 0.29167c-0.11458 0.33333-0.23958 0.64583-0.40625 0.94792 0.35417 0.51042 0.72917 0.96875 1.1146 1.4375 0.0625 0.07292 0.10417 0.16667 0.10417 0.26042s-0.03125 0.16667-0.09375 0.23958c-0.25 0.33333-1.6562 1.8646-2.0104 1.8646-0.09375 0-0.1875-0.04167-0.27083-0.09375l-1.4375-1.125c-0.30208 0.15625-0.625 0.29167-0.94792 0.39583-0.072917 0.63542-0.13542 1.3125-0.30208 1.9375-0.041667 0.16667-0.1875 0.29167-0.375 0.29167h-2.3125c-0.1875 0-0.35417-0.13542-0.375-0.3125l-0.29167-1.9167c-0.32292-0.10417-0.63542-0.22917-0.9375-0.38542l-1.4688 1.1146c-0.072917 0.0625-0.16667 0.09375-0.26042 0.09375s-0.1875-0.04167-0.26042-0.11458c-0.55208-0.5-1.2812-1.1458-1.7188-1.75-0.052083-0.07292-0.072917-0.15625-0.072917-0.23958 0-0.09375 0.03125-0.16667 0.083333-0.23958 0.35417-0.47917 0.73958-0.9375 1.0938-1.4271-0.17708-0.33333-0.32292-0.67708-0.42708-1.0312l-1.9062-0.28125c-0.17708-0.03125-0.30208-0.19792-0.30208-0.375v-2.3125c0-0.15625 0.125-0.34375 0.28125-0.375l1.9375-0.29167c0.10417-0.33333 0.23958-0.64583 0.40625-0.95833-0.35417-0.5-0.72917-0.96875-1.1146-1.4375-0.0625-0.07292-0.10417-0.15625-0.10417-0.25s0.041667-0.16667 0.09375-0.23958c0.25-0.34375 1.6562-1.8646 2.0104-1.8646 0.09375 0 0.1875 0.04167 0.27083 0.10417l1.4375 1.1146c0.30208-0.15625 0.625-0.29167 0.94792-0.39583 0.072917-0.63542 0.13542-1.3125 0.30208-1.9375 0.041667-0.16667 0.1875-0.29167 0.375-0.29167h2.3125c0.1875 0 0.35417 0.13542 0.375 0.3125l0.29167 1.9167c0.32292 0.10417 0.63542 0.22917 0.9375 0.38542l1.4792-1.1146c0.0625-0.0625 0.15625-0.09375 0.25-0.09375s0.1875 0.04167 0.26042 0.10417c0.55208 0.51042 1.2812 1.1562 1.7188 1.7708 0.05208 0.0625 0.07292 0.14583 0.07292 0.22917 0 0.09375-0.03125 0.16667-0.08333 0.23958-0.35417 0.47917-0.73958 0.9375-1.0938 1.4271 0.17708 0.33333 0.32292 0.67708 0.42708 1.0208l1.9062 0.29167c0.17708 0.03125 0.30208 0.19792 0.30208 0.375z"/></svg>
