<?xml version="1.0" encoding="UTF-8"?>
<svg width="16" height="16" version="1.1" viewBox="0 0 16 16" xmlns="http://www.w3.org/2000/svg"><path d="m14.193 7.4952c0.73918 0 1.3071 0.54086 1.3071 1.2801 0 0.57692-0.29748 0.9826-0.83834 1.1719l-1.5504 0.53185 0.50481 1.5054c0.04507 0.13522 0.0631 0.27945 0.0631 0.42368 0 0.71214-0.57692 1.3071-1.2891 1.3071-0.56791 0-1.0727-0.35156-1.253-0.89243l-0.4958-1.4873-2.7945 0.9555 0.4958 1.4783c0.045072 0.13522 0.072115 0.27945 0.072115 0.42368-2.7e-6 0.70313-0.57693 1.3071-1.2981 1.3071-0.56791 0-1.0637-0.35156-1.244-0.89243l-0.49579-1.4693-1.3793 0.47777c-0.14423 0.04508-0.29748 0.08113-0.45072 0.08113-0.73017 0-1.2801-0.54086-1.2801-1.2711 0-0.55889 0.36058-1.0637 0.89243-1.244l1.4063-0.47777-0.9465-2.8215-1.4063 0.48678c-0.14423 0.045072-0.28846 0.072115-0.43269 0.072115-0.72115 0-1.2801-0.54988-1.2801-1.2711 0-0.55889 0.36058-1.0637 0.89243-1.244l1.4153-0.47777-0.47777-1.4333c-0.045072-0.13522-0.072115-0.27945-0.072115-0.42368 0-0.71214 0.57692-1.3071 1.2981-1.3071 0.56791 0 1.0637 0.35156 1.244 0.89243l0.48678 1.4423 2.7945-0.9465-0.48678-1.4423c-0.045072-0.13522-0.072115-0.27945-0.072115-0.42368 0-0.71214 0.58594-1.3071 1.2981-1.3071 0.56791 0 1.0727 0.36058 1.253 0.89243l0.47777 1.4513 1.4603-0.4958c0.12621-0.036057 0.2524-0.054086 0.38762-0.054086 0.70313 0 1.3071 0.52284 1.3071 1.244 0 0.55889-0.4327 1.0277-0.9375 1.1989l-1.4153 0.48678 0.9465 2.8486 1.4783-0.50481c0.13522-0.045072 0.27945-0.072115 0.41467-0.072115zm-7.1574 2.3618 2.7945-0.9465-0.9465-2.8395-2.7945 0.9645z"/></svg>
