<?xml version="1.0" encoding="UTF-8"?>
<svg width="16" height="16" version="1.1" viewBox="0 0 16 16" xmlns="http://www.w3.org/2000/svg"><path d="m8 0c-1.6581 0-3.1651 0.32865-4.3008 0.89648-1.1365 0.56824-1.9746 1.4298-1.9746 2.5059v9.1953c0 1.076 0.83807 1.9376 1.9746 2.5059 1.1357 0.56783 2.6427 0.89648 4.3008 0.89648s3.1651-0.32865 4.3008-0.89648c1.1365-0.56824 1.9746-1.4298 1.9746-2.5059v-9.1953c0-1.076-0.83807-1.9376-1.9746-2.5059-1.1357-0.56783-2.6427-0.89648-4.3008-0.89648zm0 1.0586c1.5152 0 2.885 0.3136 3.8281 0.78516 0.94406 0.472 1.3906 1.0558 1.3906 1.5586 0 0.5028-0.44664 1.0866-1.3906 1.5586-0.9431 0.47155-2.313 0.78516-3.8281 0.78516-1.5152 0-2.885-0.3136-3.8281-0.78516-0.94406-0.472-1.3906-1.0558-1.3906-1.5586 0-0.5028 0.44664-1.0866 1.3906-1.5586 0.9431-0.47155 2.313-0.78516 3.8281-0.78516zm-5.2188 4.1797c0.28386 0.23808 0.55281 0.48736 0.91797 0.66992 1.1357 0.56783 2.6427 0.89648 4.3008 0.89648s3.1651-0.32865 4.3008-0.89648c0.36517-0.18256 0.63412-0.43185 0.91797-0.66992v1.2285c0 0.5028-0.44664 1.0866-1.3906 1.5586-0.9431 0.47155-2.313 0.78711-3.8281 0.78711s-2.885-0.31556-3.8281-0.78711c-0.94406-0.472-1.3906-1.0558-1.3906-1.5586zm0 3.0664c0.28379 0.23798 0.55291 0.48546 0.91797 0.66797 1.1357 0.56783 2.6427 0.89648 4.3008 0.89648s3.1651-0.32866 4.3008-0.89648c0.36506-0.18251 0.63418-0.42999 0.91797-0.66797v1.2285c0 0.5028-0.44664 1.0866-1.3906 1.5586-0.9431 0.47155-2.313 0.78516-3.8281 0.78516s-2.885-0.3136-3.8281-0.78516c-0.94406-0.472-1.3906-1.0558-1.3906-1.5586zm0 3.0645c0.2838 0.23799 0.55292 0.48546 0.91797 0.66797 1.1357 0.56783 2.6427 0.89844 4.3008 0.89844 1.658 0 3.1651-0.33061 4.3008-0.89844 0.36506-0.18251 0.63418-0.42999 0.91797-0.66797v1.2285c0 0.5028-0.44664 1.0866-1.3906 1.5586-0.94316 0.47155-2.313 0.78516-3.8281 0.78516s-2.885-0.3136-3.8281-0.78516c-0.944-0.472-1.3906-1.0558-1.3906-1.5586z"/></svg>
