<?xml version="1.0" encoding="UTF-8"?>
<svg width="16" height="16" viewBox="0 0 16 16" version="1.1" xmlns="http://www.w3.org/2000/svg"><path d="m7.4667 7.9958c0-1.175-0.95833-2.1333-2.1333-2.1333s-2.1333 0.95833-2.1333 2.1333 0.95833 2.1333 2.1333 2.1333 2.1333-0.95833 2.1333-2.1333zm6.4 4.2667c0-0.58333-0.48333-1.0667-1.0667-1.0667s-1.0667 0.48333-1.0667 1.0667c0 0.59167 0.48333 1.0667 1.0667 1.0667 0.59167 0 1.0667-0.48333 1.0667-1.0667zm0-8.5333c0-0.58333-0.48333-1.0667-1.0667-1.0667s-1.0667 0.48333-1.0667 1.0667c0 0.59167 0.48333 1.0667 1.0667 1.0667 0.59167 0 1.0667-0.48333 1.0667-1.0667zm-3.2 3.5083v1.5417c0 0.10833-0.08333 0.23333-0.19167 0.25l-1.2917 0.2c-0.066667 0.21667-0.15833 0.425-0.26667 0.63333 0.23333 0.33333 0.48333 0.64167 0.75 0.95833 0.033333 0.05 0.058333 0.1 0.058333 0.16667 0 0.05833-0.016667 0.11667-0.058333 0.15833-0.16667 0.225-1.1 1.2417-1.3417 1.2417-0.066667 0-0.125-0.025-0.175-0.05833l-0.95833-0.75c-0.20833 0.10833-0.41667 0.19166-0.64167 0.25833-0.041667 0.425-0.083333 0.88333-0.19167 1.2917-0.033333 0.11667-0.13333 0.2-0.25 0.2h-1.55c-0.11667 0-0.23333-0.09167-0.25-0.20833l-0.19167-1.275c-0.21667-0.06667-0.425-0.15833-0.625-0.25833l-0.98333 0.74167c-0.041667 0.04167-0.10833 0.05833-0.16667 0.05833-0.066667 0-0.125-0.025-0.175-0.06667-0.21667-0.19999-1.2-1.0917-1.2-1.3333 0-0.05833 0.025-0.10833 0.058333-0.15833 0.24167-0.31667 0.49167-0.625 0.73333-0.95-0.11667-0.225-0.21667-0.45-0.29167-0.68333l-1.2667-0.2c-0.11667-0.016666-0.2-0.125-0.2-0.24167v-1.5417c0-0.10833 0.083333-0.23333 0.19167-0.25l1.2917-0.2c0.066667-0.21667 0.15833-0.425 0.26667-0.63333-0.23333-0.33333-0.48333-0.64167-0.75-0.95833-0.033333-0.05-0.058333-0.10833-0.058333-0.16667 0-0.058333 0.016667-0.11667 0.058333-0.16667 0.16667-0.225 1.1-1.2333 1.3417-1.2333 0.066667 0 0.125 0.025 0.175 0.058333l0.95833 0.75c0.20833-0.10833 0.41667-0.19167 0.64167-0.26667 0.041667-0.41667 0.083333-0.875 0.19167-1.2833 0.033333-0.11667 0.13333-0.2 0.25-0.2h1.55c0.11667 0 0.23333 0.091667 0.25 0.20833l0.19167 1.275c0.21667 0.066667 0.425 0.15833 0.625 0.25833l0.98333-0.74167c0.05-0.041667 0.10833-0.058333 0.16667-0.058333 0.066667 0 0.125 0.025 0.175 0.066667 0.21667 0.2 1.2 1.1 1.2 1.3333 0 0.058333-0.025 0.10833-0.058333 0.15833-0.24167 0.325-0.49167 0.625-0.725 0.95 0.10833 0.225 0.20833 0.45 0.28333 0.68333l1.2667 0.19167c0.11667 0.025 0.2 0.13333 0.2 0.25zm5.3333 4.4417v1.1667c0 0.125-1.075 0.24167-1.2417 0.25834-0.06667 0.15833-0.15 0.3-0.25 0.43333 0.075 0.16667 0.425 1 0.425 1.15 0 0.025-0.0083 0.04167-0.03333 0.05833-0.1 0.05833-0.99167 0.59167-1.0333 0.59167-0.10833 0-0.73333-0.83333-0.81667-0.95833-0.08333 0.0083-0.16667 0.01667-0.25 0.01667-0.08333 0-0.16667-0.0083-0.25-0.01667-0.08333 0.125-0.70833 0.95833-0.81667 0.95833-0.04167 0-0.93333-0.53333-1.0333-0.59167-0.025-0.01667-0.03333-0.04167-0.03333-0.05833 0-0.14167 0.35-0.98333 0.425-1.15-0.1-0.13333-0.18333-0.275-0.25-0.43333-0.16667-0.016668-1.2417-0.13334-1.2417-0.25834v-1.1667c0-0.125 1.075-0.24167 1.2417-0.25833 0.06667-0.15 0.15-0.3 0.25-0.43333-0.075-0.16667-0.425-1.0083-0.425-1.15 0-0.01667 0.0083-0.04167 0.03333-0.05833 0.1-0.05 0.99167-0.58333 1.0333-0.58333 0.10833 0 0.73333 0.825 0.81667 0.95 0.08333-0.0083 0.16667-0.01667 0.25-0.01667 0.08333 0 0.16667 0.0083 0.25 0.01667 0.23333-0.325 0.48333-0.65 0.76667-0.93333l0.05-0.01667c0.04167 0 0.93333 0.525 1.0333 0.58333 0.025 0.01667 0.03333 0.04167 0.03333 0.05833 0 0.15-0.35 0.98333-0.425 1.15 0.1 0.13333 0.18333 0.28333 0.25 0.43333 0.16667 0.016669 1.2417 0.13334 1.2417 0.25834zm0-8.5333v1.1667c0 0.125-1.075 0.24167-1.2417 0.25833-0.06667 0.15833-0.15 0.3-0.25 0.43333 0.075 0.16667 0.425 1 0.425 1.15 0 0.025-0.0083 0.041667-0.03333 0.058333-0.1 0.058333-0.99167 0.59167-1.0333 0.59167-0.10833 0-0.73333-0.83333-0.81667-0.95833-0.08334 0.00833-0.16667 0.016667-0.25 0.016667-0.08333 0-0.16667-0.00833-0.25-0.016667-0.08333 0.125-0.70833 0.95833-0.81667 0.95833-0.04167 0-0.93333-0.53333-1.0333-0.59167-0.025-0.016667-0.03333-0.041667-0.03333-0.058333 0-0.14167 0.35-0.98333 0.425-1.15-0.1-0.13333-0.18333-0.275-0.25-0.43333-0.16667-0.016667-1.2417-0.13333-1.2417-0.25833v-1.1667c0-0.125 1.075-0.24167 1.2417-0.25833 0.06667-0.15 0.15-0.3 0.25-0.43333-0.075-0.16667-0.425-1.0083-0.425-1.15 0-0.016667 0.0083-0.041667 0.03333-0.058333 0.1-0.05 0.99167-0.58333 1.0333-0.58333 0.10833 0 0.73333 0.825 0.81667 0.95 0.08333-0.00833 0.16667-0.016667 0.25-0.016667 0.08333 0 0.16667 0.00833 0.25 0.016667 0.23333-0.325 0.48333-0.65 0.76667-0.93333l0.05-0.016667c0.04167 0 0.93333 0.525 1.0333 0.58333 0.025 0.016667 0.03333 0.041667 0.03333 0.058333 0 0.15-0.35 0.98333-0.425 1.15 0.1 0.13333 0.18333 0.28333 0.25 0.43333 0.16667 0.016667 1.2417 0.13333 1.2417 0.25833z"/></svg>
